<?xml version="1.0" encoding="UTF-8" standalone="no"?>
<!-- Created with Inkscape (http://www.inkscape.org/) -->

<svg
   version="1.1"
   id="svg2"
   width="1056.6667"
   height="1340"
   viewBox="0 0 1056.6667 1340"
   sodipodi:docname="pokemon-mimikyu-seeklogo.eps"
   xmlns:inkscape="http://www.inkscape.org/namespaces/inkscape"
   xmlns:sodipodi="http://sodipodi.sourceforge.net/DTD/sodipodi-0.dtd"
   xmlns="http://www.w3.org/2000/svg"
   xmlns:svg="http://www.w3.org/2000/svg">
  <defs
     id="defs6" />
  <sodipodi:namedview
     id="namedview4"
     pagecolor="#ffffff"
     bordercolor="#000000"
     borderopacity="0.25"
     inkscape:showpageshadow="2"
     inkscape:pageopacity="0.0"
     inkscape:pagecheckerboard="0"
     inkscape:deskcolor="#d1d1d1" />
  <g
     id="g8"
     inkscape:groupmode="layer"
     inkscape:label="ink_ext_XXXXXX"
     transform="matrix(1.3333333,0,0,-1.3333333,0,1340)">
    <g
       id="g10"
       transform="scale(0.1)">
      <path
         d="M 421.336,483.48 C 302.23,451.063 179.063,417.551 76.582,348.43 61.7852,338.59 45.5156,326.41 36.6133,310.672 c -6.9258,-12.402 -9.7852,-30.41 -0.5274,-42.59 12.5821,-16.441 41.9414,-14.703 66.1951,-11.371 188.367,25.641 376.379,51.281 564.391,77.25 4.57,0.352 8.078,0.852 11.586,1.352 23.078,3.156 47.953,6.546 72.445,1.859 29.621,-5.723 53.289,-23.051 63.219,-46.332 8.223,-19.418 6.25,-40.258 4.512,-58.649 -1.68,-17.57 -3.243,-34.16 3.976,-46.48 9.403,-16.07 32.305,-20.461 49.664,-18.07 20.012,3.269 39.789,14.148 58.918,24.672 l 3.625,2 c 75.213,41.058 156.553,71.886 241.713,92.457 -1.97,7.371 -4.27,14.722 -6.11,22.109 l -21.16,81.031 c -7.15,25.141 -9.3,50.27 -29.23,67.621 -8.67,8.16 -18.14,12.34 -31.77,17.938 C 963.738,527.09 833.273,566.48 700.301,588.07 679.422,571.121 652.742,556.602 616.359,543.02 552.758,519.262 485.941,501.07 421.336,483.48"
         style="fill:#2a2a28;fill-opacity:1;fill-rule:nonzero;stroke:none"
         id="path12" />
      <path
         d="m 2989.87,221.219 c 9.11,-5.188 18.19,-10.34 27.35,-15.469 76.64,-43.621 155.74,-88.691 240.8,-117.8398 21.52,-7.1602 43.98,-12.8204 61.99,-5.1797 20.84,8.75 32.45,33.9805 42.56,59.0585 l 9.87,24.262 c 10.94,26.91 21.87,53.789 32.95,80.808 -113.6,31.903 -197.01,60.52 -253.91,87.071 -11.3,4.609 -22.75,8.82 -33.97,13.672 -2.22,0.187 -4.44,0.359 -6.63,0.128 -0.53,-0.039 -1.07,-0.078 -1.58,-0.14 -3.12,-0.481 -6.15,-1.391 -9.01,-2.731 -0.34,-0.187 -0.7,-0.359 -1.04,-0.546 -2.71,-1.403 -5.23,-3.192 -7.5,-5.372 -0.54,-0.492 -1.09,-0.961 -1.63,-1.472 L 2979.68,227.031 c 3.41,-1.949 6.8,-3.859 10.19,-5.812"
         style="fill:#2a2a28;fill-opacity:1;fill-rule:nonzero;stroke:none"
         id="path14" />
      <path
         d="m 4792.98,123.461 c 37.55,-0.563 60.19,6.781 68.29,23.051 6.81,13.64 2.63,32.617 -2.3,50.929 -14.53,54.508 -31.06,115.821 -51.6,174.739 -78.25,11.699 -156.67,22 -236.24,23.511 -91.38,3.899 -183.66,3.551 -274.19,-4.031 13.07,-60.379 33.29,-119.601 54.22,-178.281 70.49,-22.828 161.48,-50.59 253.99,-68.789 68.2,-13.121 129.65,-20.039 187.83,-21.129"
         style="fill:#2a2a28;fill-opacity:1;fill-rule:nonzero;stroke:none"
         id="path16" />
      <path
         d="m 1988.21,177.629 c 33.01,-27.969 61.51,-40.078 86.42,-37.078 20.45,2.07 39.35,13.738 58.56,26.531 59.87,40.008 111.01,79.867 156.41,121.258 -25.63,12.199 -51.27,24.41 -76.88,36.582 l -52.25,24.82 c -49.77,25.09 -105.94,21.559 -159.28,7.199 -34.15,-14.191 -77.84,-32.468 -126.36,-52.812 18.12,-25.527 35.65,-47.949 53.2,-67.789 20.27,-22.809 39.96,-42.027 60.18,-58.711"
         style="fill:#2a2a28;fill-opacity:1;fill-rule:nonzero;stroke:none"
         id="path18" />
      <path
         d="m 4283.46,391.563 c -2.79,0.976 -10.14,3.558 -10.14,3.558 2.57,-2.93 6.38,-3.949 10.14,-3.558"
         style="fill:#6eca78;fill-opacity:1;fill-rule:nonzero;stroke:none"
         id="path20" />
      <path
         d="m 6032.68,3183.74 c -241.31,-176.98 -524.37,-296.78 -724.33,-525.71 163.38,261.37 459.6,390.83 724.33,525.71 z m -481.51,-581.43 c 66.21,115.72 193.09,201.12 326.52,213.32 -121.61,-56.38 -227.35,-122.9 -326.52,-213.32 z M 4656.78,866.219 c 96.15,79.543 192.44,158.951 289.38,237.471 l 35.9,28.86 c 30.56,24.59 61.12,49.19 91.98,73.31 l 30.66,23.86 c 72.71,56.46 109.19,84.8 112.05,107.77 2.33,18.5 -17.65,44.14 -50.75,86.6 -36.58,46.96 -74.13,103.92 -77.69,117.71 -5.87,23.94 13.59,46.07 34.84,54.84 2,0.79 23.22,9.3 56.85,22.75 l 245.1,98.05 c 49.67,19.86 80.79,45.65 89.99,74.58 9.28,29.21 -5.81,53.02 -6.46,54.02 l -1.71,3.51 c -0.59,1.8 -60.42,180.23 -118.95,268.03 -23.05,34.59 -29.01,62.84 -17.72,83.98 14.27,26.65 49.11,29.68 58.51,29.98 735.22,177.87 1256.54,569.48 1401.45,687.62 -187.46,77.29 -236.47,304.34 -262.98,485.06 -14.31,97.33 -22.71,195.48 -25.85,293.72 -0.04,96.27 -13.03,207.39 50.08,288.98 -36.85,-191.8 -15.82,-385.81 12.42,-577.09 27.11,-176.72 68.57,-392.81 250.26,-467.16 13.51,15.71 24.4,33.43 31.56,52.76 142.77,385.48 -25.88,964.48 -133.78,1018.43 -113.06,56.56 -198.98,29.66 -199.8,29.34 C 5408.27,3603.25 4749.39,2620.04 4721.89,2578.41 c -16.12,-23.63 -2.12,-53.16 -1.97,-53.46 77.57,-110.27 197.59,-280.72 205.37,-289.99 47.57,-49.28 22.81,-99.87 3.01,-119.67 l -362.18,-362.18 c -25.82,-25.82 -37.78,-50.81 -35.54,-74.26 3.09,-32.59 32.98,-53.24 33.3,-53.45 l 213.51,-213.12 c 18.69,-18.69 27.06,-39.49 24.82,-61.82 -4.6,-46.49 -55.15,-80.7 -57.3,-82.13 L 4451.55,995.66 c 6.6,-9.211 14.04,-18.09 22.41,-26.597 47.16,-54.973 107.13,-88.122 172.09,-111.774 0.5,0.422 1.01,0.832 1.51,1.25 3.03,2.602 6.1,5.18 9.22,7.68"
         style="fill:#736256;fill-opacity:1;fill-rule:nonzero;stroke:none"
         id="path22" />
      <path
         d="M 6642.57,5519.7 6457.86,5335 c -9.64,-9.64 -14.12,-22.96 -12.32,-36.55 l 33.4,-250.64 c 60.52,22.49 106.71,35.28 131.68,34.38 83.91,-2.52 159.95,-46.52 230.66,-91.38 l 68,-43.2 c 259.13,-164.39 527.1,-334.39 746.98,-550.64 l 2.8,-2.74 c 28.44,-27.87 57.82,-56.69 92.69,-73.15 37.93,-17.76 79.67,-16.93 106.34,2.22 24.58,17.7 27.44,75.37 29.54,117.49 0.76,15.22 1.47,29.41 2.94,41.14 11.82,96.56 -6.66,140.35 -58.53,232.16 -35.52,62.83 -78.61,101.92 -140.3,154.39 -169.85,144.3 -285.54,340.34 -397.45,529.95 -21.99,37.22 -43.91,74.4 -66.23,111.14 -66.25,108.75 -146.83,230.71 -264.67,301.21 -125.65,75.2 -277.64,60.92 -424.68,47.19 -16.8,-1.58 -33.6,-3.16 -50.38,-4.6 -6.71,-0.59 -13.48,-1.52 -20.2,-2.15 l 180.57,-234.69 c 22.61,-29.04 20.01,-70.7 -6.13,-96.83"
         style="fill:#2a2b29;fill-opacity:1;fill-rule:nonzero;stroke:none"
         id="path24" />
      <path
         d="m 3278.83,8188.86 c 44.8,23.08 80.08,63.34 114.18,102.29 l 5.43,6.2 c 34.16,38.89 71.26,79.48 116.51,110.82 34.83,24.51 89.74,53.69 153.61,53.69 0.39,0 0.77,0 1.18,0 50.84,0 99.03,-18.63 144.04,-37.71 79.31,-33.82 156.86,-72.72 231.28,-115.38 3.37,128.08 6.75,256.21 6.75,256.21 0,0 1.88,64.91 1.88,64.9 -11.26,115.76 73.71,209.61 144.43,289.89 20.58,31.66 18.16,83.36 10.85,110.4 0,-0.01 -179.79,362.55 -179.79,362.55 l -0.1,0.21 -2.68,5.41 c 54.7,170.59 117.86,340.49 214.78,492.23 7.54,13.34 17.16,26.08 23.04,39.85 13.62,26.03 22.59,58.5 8.36,73.78 -14.23,16.3 -49.33,18.3 -76.85,14.5 -134.64,-75.06 -319.46,-162.44 -452.83,-268.93 -16.55,-13.62 -33.22,-28.47 -43.69,-44 -23.19,-57.01 -15.22,-127.26 -17.36,-189.76 1.34,-88.62 6.3,-177.63 13.17,-266.1 l 0.5,-6.45 -4.27,-4.73 L 3148,8635.11 c -9.41,-32.55 -32.74,-109.22 -41.35,-162.52 -18.81,-101.31 -30.21,-204.1 -37.01,-307.17 14.33,-1 28.71,-2.02 42.96,-2.67 49.28,-2.22 112.86,-1.32 166.23,26.11"
         style="fill:#1d1d1e;fill-opacity:1;fill-rule:nonzero;stroke:none"
         id="path26" />
      <path
         d="m 6436.64,5356.23 c -16.3,-16.3 -24.15,-38.94 -21.13,-61.87 l 34.41,-257.75 c -292.15,-114.69 -862.58,-419.82 -1149.9,-596.38 22.03,80.59 38.93,162.08 31.99,245.68 -44.67,-123.14 -54.93,-251.11 -100.2,-373.64 -39.54,-122.54 -88.43,-242.05 -142.76,-359.16 -113.78,-226.65 -221.82,-471.12 -394.76,-658.55 -179.88,-185.91 -450.61,-239.33 -698.39,-273.13 -127.67,-15.09 -256.84,-18.11 -383.9,-3.63 -130.09,10.87 -248.09,57.05 -375.15,86.32 54.32,-34.71 115.59,-61.27 181.69,-81.18 71.22,-49.8 172.93,-126.46 187.12,-197.99 -12.38,-33.5 -38.03,-79.08 -76.36,-80.59 l -39.54,-0.3 c 217,-184.71 405.64,-405.63 559.56,-645.27 146.68,-229.07 258.65,-482.29 310.56,-749.69 11.77,-67 21.73,-134.31 25.65,-201.91 2.72,-30.79 1.21,-75.76 10.57,-105.03 34.1,-102.32 134,-173.238 230.88,-210.371 65.8,-24.437 134.01,-36.82 199.5,-54.32 195.27,-56.137 376.05,-160.258 550.8,-262.27 25.96,-18.109 58.25,-30.789 71.53,-59.16 14.19,-27.16 -0.6,-53.418 -24.75,-67.297 -170.52,-38.633 -380.88,-29.281 -563.48,6.34 -190.44,31.379 -383.6,41.34 -576.76,25.348 -6.63,0.601 -13.88,-2.11 -16.29,-9.059 -1.51,-3.012 -1.51,-6.031 -1.81,-9.351 10.26,-76.059 41.34,-147.59 64.89,-220.02 9.05,-28.371 30.78,-78.469 35.91,-106.8398 C 4378.59,-10 4256.06,45.9023 4205.65,66.4023 4096.1,106.242 3982.32,132.5 3869.74,160.871 3729.4,197.391 3586.04,227.57 3446,266.199 l 0.3,0.614 -16.6,4.519 c -43.16,12.078 -81.79,23.539 -116.8,34.707 -53.42,17.512 -106.23,37.121 -157.54,59.762 -3.62,1.512 -7.25,3.32 -10.57,4.828 -0.9,0.601 -1.81,0.601 -2.71,0.902 -4.23,2.121 -8.15,3.321 -12.38,4.231 -3.62,0.91 -6.94,1.508 -10.56,1.808 -3.02,0 -5.74,0.301 -8.75,0 -3.32,-0.3 -6.64,-0.597 -9.96,-1.507 -0.91,-0.301 -1.51,-0.602 -2.42,-0.602 -6.03,-1.809 -11.77,-4.231 -17.2,-7.852 -3.62,-2.109 -7.24,-4.527 -10.56,-7.55 0,0 -0.3,0 -0.3,-0.297 h -0.31 c -3.32,-3.02 -6.33,-6.032 -9.05,-9.352 l -130.38,-130.078 0.3,-0.301 c -41.05,-41.051 -81.49,-81.801 -98.39,-98.09 -22.94,-25.9605 -59.16,-35.3199 -92.05,-27.1715 -35.62,8.7615 -66.4,35.3205 -98.69,51.3125 -136.72,73.637 -276.47,139.438 -415.9,205.84 l -52.51,24.75 C 2036.85,443.359 1902.24,339.84 1778.2,294.871 l -427.36,-177.16 c -30.18,-18.4102 -72.74,-31.6915 -92.96,3.32 -25.06,61.571 -40.44,130.379 -58.85,195.571 l -21.13,80.589 c -7.25,27.758 -13.58,62.469 -38.03,82.391 -21.73,19.918 -54.02,27.469 -79.38,39.238 -130.982,50.7 -267.099,88.43 -406.838,106.231 -178.367,12.98 -350.703,82.101 -471.425,216.398 -0.602,0.301 -0.301,1.813 0.3,2.121 h 6.645 c 152.41,0.903 433.09,-1.511 585.207,0 h 83.601 c 32.293,-1.211 66.094,17.2 82.391,46.172 54.934,102.317 77.269,213.078 106.839,319.918 113.49,431.29 228.48,861.97 377.27,1282.09 73.64,209.76 153.62,418.01 244.46,620.82 93.86,204.33 194.67,411.67 341.05,583.1 -358.85,385.41 -623.24,868.31 -736.72,1384.1 -10.26,35.92 -13.58,81.49 -21.43,118.91 -5.13,32.9 -15.09,87.23 -16.9,119.52 l -9.66,120.72 c -11.16,79.68 3.62,158.15 46.48,224.25 130.38,204.02 310.26,370.92 495.87,524.85 250.5,204.32 523.34,380.28 803.42,542.65 l 5.74,3.32 1.2,6.64 c 96.58,420.42 231.49,845.07 480.49,1201.51 l 2.71,3.92 v 4.83 c 0.91,61.27 3.02,122.84 6.64,184.4 14.49,-0.9 28.97,-2.11 43.46,-2.71 10.57,-0.6 21.43,-0.91 33.2,-0.91 46.48,0 100.2,5.74 148.19,30.49 49.8,25.65 86.92,67.9 123.14,109.25 l 5.43,6.04 c 32.9,37.42 68.51,76.66 111.07,105.93 31.39,22.03 80.28,48.29 136.42,48.29 46.77,0.3 90.84,-17.2 133.1,-35.31 83.29,-35.61 164.78,-76.66 242.35,-121.93 -3.02,-112.58 -6.04,-228.77 -6.04,-228.77 l -12.68,-519.12 c -18.1,-235.71 -39.23,-474.14 -77.56,-707.74 -2.11,-10.26 -4.23,-20.83 -7.24,-29.28 -0.31,-0.9 -1.21,-3.01 -1.21,-3.62 h 0.3 c -0.9,-1.21 -3.02,-3.92 -3.92,-6.34 -2.72,-5.73 -1.51,-12.07 0.6,-17.5 30.48,-43.46 73.34,-71.53 110.46,-106.24 l 98.39,-84.5 c 130.99,-112.88 259.26,-229.08 380.89,-351.61 181.69,-184.11 352.21,-381.19 480.78,-606.04 43.16,-74.54 75.15,-153.32 121.93,-228.17 -18.11,104.73 -65.79,199.8 -121.93,289.74 296.98,-4.22 598.79,45.88 890.94,94.77 175.66,29.58 356.14,59.16 535.11,77.56 l 191.96,-249.59 c 13.28,-16.9 11.76,-41.65 -3.63,-57.04 l -184.7,-184.71"
         style="fill:#cecb9d;fill-opacity:1;fill-rule:nonzero;stroke:none"
         id="path28" />
      <path
         d="m 7890.45,4481.88 c -1.2,-11.76 -2.11,-25.95 -2.71,-41.04 -2.11,-42.26 -5.13,-99.9 -29.58,-117.41 -26.86,-19.31 -68.51,-20.22 -106.54,-2.41 -34.71,16.6 -63.98,45.27 -92.65,73.34 l -2.72,2.72 c -20.22,19.92 -41.05,39.53 -62.17,58.85 -1.51,3.02 -3.02,6.34 -4.53,9.36 -79.08,162.67 -199.2,363.68 -347.68,471.42 -237.23,172.34 -416.81,144.27 -500.11,114.09 -1.5,-0.61 -3.01,-1.21 -4.22,-1.51 -40.44,18.71 -82.39,31.69 -127.06,32.9 -17.81,0.6 -46.78,-5.74 -84.51,-18.11 -2.11,0.3 -4.53,0.9 -6.64,1.2 -13.88,2.42 -28.67,4.53 -43.76,6.64 l -30.18,226.66 c -1.51,13.58 2.71,26.86 12.37,36.52 l 184.71,184.71 c 26.26,25.95 28.97,67.6 6.34,96.58 l -180.79,234.81 c 6.94,0.6 13.59,1.51 20.23,2.11 16.9,1.51 33.8,3.02 50.4,4.53 146.98,13.88 299.09,28.07 424.65,-47.08 118,-70.63 198.58,-192.56 264.68,-301.21 22.34,-36.82 44.37,-73.94 66.4,-111.07 111.97,-189.53 227.57,-385.71 397.48,-529.98 61.57,-52.51 104.73,-91.44 140.05,-154.52 51.91,-91.75 70.62,-135.52 58.54,-232.1"
         style="fill:#1d1d1e;fill-opacity:1;fill-rule:nonzero;stroke:none"
         id="path30" />
      <path
         d="m 6610.48,5082.19 c 44.67,-1.21 86.62,-14.19 127.06,-32.9 -14.48,-5.44 -25.96,-10.57 -33.5,-15.09 -1.51,-0.61 -2.72,-1.21 -3.62,-1.81 -6.64,-3.63 -9.96,-6.04 -9.96,-6.04 0,0 -36.82,11.47 -96.58,24.45 -0.3,0 -0.3,0 -0.3,0 -2.42,0.6 -5.13,1.2 -7.85,1.81 0,0 0,0 -0.3,0 -18.11,3.92 -37.73,7.54 -59.46,11.47 37.73,12.37 66.7,18.71 84.51,18.11"
         style="fill:#938867;fill-opacity:1;fill-rule:nonzero;stroke:none"
         id="path32" />
      <path
         d="m 4272.66,10004.1 c 14.18,-15.09 5.13,-47.68 -8.45,-73.64 -5.74,-13.88 -15.39,-26.56 -22.94,-39.83 -96.88,-151.82 -160.26,-321.74 -214.89,-492.26 l 2.72,-5.43 v -0.3 l 179.88,-362.48 c 7.24,-27.16 9.66,-78.77 -10.87,-110.46 -70.62,-80.28 -155.73,-174.14 -144.26,-289.74 l -2.12,-64.89 c 0,0 -3.32,-128.27 -6.63,-256.23 -74.55,42.55 -152.12,81.48 -231.2,115.29 -45.27,19.01 -93.25,37.72 -144.26,37.72 h -1.21 c -63.68,0 -118.61,-29.27 -153.62,-53.72 -44.97,-31.39 -82.09,-71.83 -116.5,-110.76 l -5.43,-6.34 c -34.1,-38.93 -69.11,-79.07 -114.08,-102.31 -53.42,-27.17 -116.8,-28.07 -166.3,-25.96 -14.19,0.6 -28.67,1.51 -42.86,2.72 6.94,102.91 18.11,205.83 37.13,307.24 8.45,53.12 31.69,129.78 41.34,162.37 l 543.26,603.62 4.23,4.83 -0.61,6.34 c -6.94,88.43 -11.77,177.46 -13.27,266.19 2.41,62.48 -5.74,132.81 17.5,189.84 10.56,15.4 27.16,30.19 43.76,43.77 133.4,106.53 318.11,194.06 452.72,268.92 27.46,3.9 62.77,1.8 76.96,-14.5 z M 7859.07,4733.9 c -38.03,67 -85.11,109.55 -147.28,162.37 -166.3,140.64 -280.99,334.41 -391.76,521.53 -22.03,37.42 -44.06,74.85 -66.7,111.67 -68.21,111.67 -151.51,236.92 -275.25,310.86 -134.3,80.28 -291.24,65.19 -443.05,50.71 -16.9,-1.51 -33.51,-3.02 -50.11,-4.53 -197.98,-17.51 -398.69,-51.61 -592.75,-84.51 -297.28,-50.1 -604.83,-102.01 -905.13,-95.67 -31.69,48.59 -65.19,95.67 -97.48,142.45 -25.66,34.71 -51.91,68.81 -78.78,102.32 l -0.9,0.9 c -191.35,236.62 -414.99,445.47 -644.66,644.06 -55.84,51.31 -146.99,119.22 -196.48,175.36 l -0.61,0.3 v 0.3 c -0.3,0.3 -0.6,0.6 -0.9,0.91 0.3,0.3 0.3,0.6 0.3,1.2 0.3,0.3 0.3,0.61 0.6,0.91 20.52,53.12 28.98,162.67 38.94,230.88 19.31,172.94 39.23,344.37 50.4,518.51 7.24,290.64 20.52,814.59 26.86,1105.23 -7.55,86.92 38.33,156.64 93.56,221.23 55.53,47.38 79.07,122.53 55.53,191.65 -0.3,1.81 -158.45,313.88 -180.78,357.94 37.73,119.22 82.39,237.53 137.02,349.8 26.86,58.55 64.29,111.07 94.77,167.2 44.67,84.22 5.43,131.32 -69.42,132.52 -3.32,0 -6.94,-0.3 -10.26,-0.3 -6.64,-0.3 -13.58,-0.9 -20.52,-1.8 -81.79,-39.3 -161.17,-83.94 -240.24,-128.6 -77.57,-44.97 -154.83,-90.25 -226.06,-147.29 -17.81,-14.79 -35.31,-29.58 -49.8,-51 -15.39,-25.36 -14.48,-47.99 -18.11,-70.93 -9.66,-132.79 0,-264.69 9.36,-396.88 -48.59,-54.02 -538.13,-599.7 -538.13,-599.7 -24.14,-56.43 -35.61,-117.4 -48.29,-176.86 -27.76,-153.62 -50.4,-398.99 -42.25,-518.51 -190.75,-269.51 -309.05,-581.28 -402.92,-895.47 -29.88,-102.61 -56.74,-205.53 -79.07,-310.56 0,-0.3 -0.3,-0.91 -0.3,-1.21 -278.88,-162.37 -550.81,-338.33 -801.01,-543.26 -125.55,-103.82 -246.57,-213.68 -354.02,-336.82 -84.21,-98.39 -182.29,-212.77 -200.1,-343.76 -1.21,-7.84 -1.81,-15.69 -2.11,-23.54 -1.51,-23.24 -0.3,-46.48 3.92,-70.62 3.93,-41.35 8.15,-106.24 12.68,-152.42 l 4.83,-30.18 9.96,-60.36 c 42.85,-259.55 125.55,-511.57 240.54,-748.49 0.3,0 0.3,0 0.6,0.3 9.06,3.02 18.71,6.34 27.77,9.36 0.3,0 0.6,0.3 0.9,0.3 938.63,305.74 2446.48,556.54 3656.43,-366.09 8.75,-6.64 17.51,-13.58 26.26,-20.23 32.29,78.48 61.57,158.15 86.92,239.34 8.45,31.09 18.11,62.48 26.86,93.56 0.31,0.3 0.31,0.3 0.31,0.6 49.79,31.39 107.44,66.1 170.82,102.62 4.22,14.19 8.75,28.37 14.18,41.95 0.3,0.6 0.3,0.91 0.61,1.51 37.72,99.3 99.9,189.54 182.29,261.37 73.94,64.59 160.57,131.59 256.84,189.54 160.26,96.58 370.02,98.99 530.88,80.28 10.57,-1.21 20.83,-2.42 30.79,-3.93 l -30.18,226.66 c -1.51,13.58 2.71,26.86 12.37,36.52 l 184.71,184.71 c 26.26,25.95 28.97,67.6 6.34,96.58 l -180.79,234.81 c 6.94,0.6 13.59,1.51 20.23,2.11 16.9,1.51 33.8,3.02 50.4,4.53 146.98,13.88 299.09,28.07 424.65,-47.08 118,-70.63 198.58,-192.56 264.68,-301.21 22.34,-36.82 44.37,-73.94 66.4,-111.07 111.97,-189.53 227.57,-385.71 397.48,-529.98 61.57,-52.51 104.73,-91.44 140.05,-154.52 51.91,-91.75 70.62,-135.52 58.54,-232.1 -1.2,-11.76 -2.11,-25.95 -2.71,-41.04 -2.11,-42.26 -5.13,-99.9 -29.58,-117.41 -26.86,-19.31 -68.51,-20.22 -106.54,-2.41 -34.71,16.6 -63.98,45.27 -92.65,73.34 l -2.72,2.72 c -20.22,19.92 -41.05,39.53 -62.17,58.85 10.56,-22.03 20.22,-43.16 29.27,-63.38 4.53,-3.92 8.75,-8.15 12.98,-12.38 l 2.71,-3.01 c 30.19,-29.58 61.58,-60.06 101.11,-78.77 19.62,-9.06 43.76,-15.7 68.82,-15.4 23.24,0 47.08,5.74 67.91,20.83 15.99,11.47 25.65,30.18 31.38,51.61 0.6,1.81 1.21,3.92 1.51,5.73 6.34,26.26 7.85,56.44 9.05,83 0.61,14.49 1.21,28.07 2.72,38.93 13.28,110.46 -12.37,162.07 -62.47,250.81"
         style="fill:#938867;fill-opacity:1;fill-rule:nonzero;stroke:none"
         id="path34" />
      <path
         d="m 4109.68,2064.08 c -18.71,12.98 -38.63,26.26 -59.76,40.15 -329.87,216.09 -909.05,518.51 -1501.5,459.35 -465.09,-46.48 -938.03,-331.69 -1288.13,-598.19 -13.58,-10.56 -26.86,-20.82 -40.14,-31.08 55.23,189.23 114.39,377.56 179.88,563.17 73.64,210.97 153.62,419.52 244.77,623.85 91.15,199.49 188.03,398.99 328.06,570.42 -22.03,24.14 -43.76,48.59 -64.88,73.34 23.84,-12.98 48.59,-26.56 74.24,-39.84 451.21,-240.55 1173.14,-558.95 2036.01,-701.41 0,0 0.3,0 0.6,0 37.13,-6.04 73.95,-11.77 111.37,-17.2 -204.32,-35.92 -433.39,-46.78 -631.99,-4.53 40.15,-31.09 78.48,-64.59 109.26,-105.63 15.09,-22.04 32.59,-50.41 29.58,-81.79 -13.59,-37.13 -37.12,-77.57 -73.95,-93.56 212.47,-191.35 399,-412.58 546.58,-657.05"
         style="fill:#938867;fill-opacity:1;fill-rule:nonzero;stroke:none"
         id="path36" />
      <path
         d="m 5267.57,4420.11 16.03,-25.55 c 1.41,0.88 2.98,1.84 4.4,2.73 4.15,14.32 8.21,28.67 12.14,43.06 -11.29,-6.95 -22.19,-13.71 -32.57,-20.24"
         style="fill:#040606;fill-opacity:1;fill-rule:nonzero;stroke:none"
         id="path38" />
      <path
         d="m 1361.79,90.0313 c 0.03,0.0195 0.08,0.039 0.12,0.0507 0.86,0.5196 1.73,0.8399 2.6,1.3789 l -2.72,-1.4296"
         style="fill:#040606;fill-opacity:1;fill-rule:nonzero;stroke:none"
         id="path40" />
      <path
         d="m 1978.88,3705.15 c -2.83,-3.38 -5.36,-6.95 -8.15,-10.35 2.99,-3.28 5.83,-6.68 8.83,-9.94 l -0.68,20.29"
         style="fill:#040606;fill-opacity:1;fill-rule:nonzero;stroke:none"
         id="path42" />
      <path
         d="m 3110.47,377.551 c 2.88,0.179 5.75,0.09 8.64,-0.11 -2.9,0.18 -5.79,0.329 -8.64,0.11"
         style="fill:#040606;fill-opacity:1;fill-rule:nonzero;stroke:none"
         id="path44" />
      <path
         d="m 3060.51,350.539 9.11,9.113 c -3.2,-2.761 -6.22,-5.8 -9.11,-9.113"
         style="fill:#040606;fill-opacity:1;fill-rule:nonzero;stroke:none"
         id="path46" />
      <path
         d="m 3939.32,6785.87 c -0.01,0 -0.04,-0.01 -0.04,-0.01 -0.12,-0.38 -0.07,-0.27 0.04,0.01"
         style="fill:#040606;fill-opacity:1;fill-rule:nonzero;stroke:none"
         id="path48" />
      <path
         d="m 3966.84,6766.39 c 0.93,2 1.71,4.76 2.6,6.97 -0.71,0.81 -1.59,1.67 -2.28,2.47 1.2,-2.88 0.94,-6.18 -0.32,-9.44"
         style="fill:#040606;fill-opacity:1;fill-rule:nonzero;stroke:none"
         id="path50" />
      <path
         d="m 6970.13,3331.01 c -1.41,-173.04 -113.07,-308.98 -252.72,-411.16 -486.91,-356.27 -1166.94,-571.39 -1364.27,-661.7 -25.05,-11.47 -27.47,-46.18 -4.23,-60.97 l 16.6,-10.56 31.39,-19.92 c 2.41,-9.05 8.15,-19.92 16.3,-32.29 58.25,-87.83 115.29,-254.13 121.93,-273.74 2.41,-4.23 8.15,-14.79 10.87,-29.88 l -28.68,-9.66 -400.5,-136.42 c -38.33,-16 -82.7,-7.24 -111.97,22.03 l -242.66,242.66 -21.12,21.12 165.99,166 c 3.62,3.92 34.71,38.03 -3.92,77.87 -6.94,7.54 -148.49,208.85 -209.15,295.17 -2.12,3.92 -23.24,47.38 2.41,84.81 28.07,42.55 692.05,1033.69 1845.57,1477.36 4.52,1.5 98.69,31.69 223.34,-30.79 96.56,-48.28 207.5,-382.61 204.82,-709.93"
         style="fill:#4d3e34;fill-opacity:1;fill-rule:nonzero;stroke:none"
         id="path52" />
      <path
         d="m 2556.09,6756.53 c -1.9,-1.1 -3.77,-2.23 -5.67,-3.34 -0.48,-2.21 -1.02,-4.41 -1.49,-6.62 l 7.16,9.96"
         style="fill:#040606;fill-opacity:1;fill-rule:nonzero;stroke:none"
         id="path54" />
      <path
         d="m 3669.16,9258.61 c 0,0 -1.68,-1.86 -4.22,-4.68 0.15,-2.16 0.3,-4.32 0.45,-6.49 l 3.77,11.17"
         style="fill:#040606;fill-opacity:1;fill-rule:nonzero;stroke:none"
         id="path56" />
      <path
         d="m 4056.62,9395.31 c 0.57,1.81 1.22,3.61 1.79,5.42 -1.61,3.22 -2.57,5.15 -2.63,5.29 -0.33,1.01 0.93,-10.89 0.84,-10.71"
         style="fill:#040606;fill-opacity:1;fill-rule:nonzero;stroke:none"
         id="path58" />
      <path
         d="m 3091.17,338.531 -1.05,-1.062 c 0.54,0.511 1.09,0.98 1.63,1.472 -0.18,-0.171 -0.41,-0.242 -0.58,-0.41"
         style="fill:#040606;fill-opacity:1;fill-rule:nonzero;stroke:none"
         id="path60" />
      <path
         d="m 3142.16,371.66 c -4.17,1.86 -8.33,3.262 -12.5,4.231 4.24,-1.032 8.43,-2.321 12.5,-4.231"
         style="fill:#040606;fill-opacity:1;fill-rule:nonzero;stroke:none"
         id="path62" />
      <path
         d="m 3109.3,347.59 c 0.51,0.062 1.05,0.101 1.58,0.14 -0.53,-0.05 -1.06,-0.058 -1.58,-0.14"
         style="fill:#040606;fill-opacity:1;fill-rule:nonzero;stroke:none"
         id="path64" />
      <path
         d="m 3100.29,376.051 c -0.74,-0.18 -1.45,-0.469 -2.17,-0.68 0.73,0.199 1.43,0.508 2.17,0.68"
         style="fill:#040606;fill-opacity:1;fill-rule:nonzero;stroke:none"
         id="path66" />
      <path
         d="m 3130.9,343.98 c -4.3,2.239 -8.84,3.219 -13.39,3.622 11.22,-4.852 22.67,-9.063 33.97,-13.672 -7.24,3.383 -14.19,6.742 -20.58,10.05"
         style="fill:#040606;fill-opacity:1;fill-rule:nonzero;stroke:none"
         id="path68" />
      <path
         d="m 3099.25,344.313 c 0.34,0.187 0.7,0.359 1.04,0.546 -0.35,-0.168 -0.69,-0.367 -1.04,-0.546"
         style="fill:#040606;fill-opacity:1;fill-rule:nonzero;stroke:none"
         id="path70" />
      <path
         d="m 3312.87,305.922 c -53.37,17.629 -106.06,37.18 -157.63,59.777 37.98,-18.597 90.12,-38.379 157.63,-59.777"
         style="fill:#040606;fill-opacity:1;fill-rule:nonzero;stroke:none"
         id="path72" />
      <path
         d="m 4295.26,401.141 c -0.11,-0.809 -0.38,-1.649 -0.77,-2.422 -0.6,-1.078 -0.4,-0.789 -1.96,-2.75 -2.32,-2.567 -5.68,-4.047 -9.07,-4.406 0.55,-0.192 2,-0.704 2,-0.704 3.81,0.352 7.66,0.481 11.48,0.801 -0.33,1.512 -0.82,3 -1.14,4.512 -0.49,2.137 -0.15,3.949 -0.54,4.969"
         style="fill:#040606;fill-opacity:1;fill-rule:nonzero;stroke:none"
         id="path74" />
      <path
         d="m 3529.3,2714.71 c 11.1,0.39 21.05,3.28 30.36,7.32 -6.98,6.31 -13.84,12.75 -20.88,19 l -9.48,-26.32"
         style="fill:#040606;fill-opacity:1;fill-rule:nonzero;stroke:none"
         id="path76" />
      <path
         d="m 3080.84,367.762 c -3.67,-2.199 -7.19,-4.723 -10.57,-7.582 3.18,3.121 6.93,5.261 10.57,7.582"
         style="fill:#040606;fill-opacity:1;fill-rule:nonzero;stroke:none"
         id="path78" />
      <path
         d="m 4294.32,416.16 c -2.61,2.86 -6.44,4.031 -10.36,4.371 -0.58,-0.051 -1.17,-0.07 -1.76,-0.121 l 12.12,-4.25"
         style="fill:#040606;fill-opacity:1;fill-rule:nonzero;stroke:none"
         id="path80" />
      <path
         d="m 3415.85,3024.87 c 0.83,-0.58 1.73,-1.22 2.58,-1.81 25.05,-7.55 50.63,-14.32 76.9,-19.95 -20.6,15.93 -41.55,31.38 -62.64,46.26 l -16.84,-24.5"
         style="fill:#040606;fill-opacity:1;fill-rule:nonzero;stroke:none"
         id="path82" />
      <path
         d="m 706.52,592.941 -20.04,22.579 c -8.32,-7.379 -18.496,-14.321 -30.16,-21 14.688,-1.93 29.348,-4.071 43.981,-6.45 2.019,1.641 4.308,3.18 6.219,4.871"
         style="fill:#040606;fill-opacity:1;fill-rule:nonzero;stroke:none"
         id="path84" />
      <path
         d="m 1190.86,290.57 c -4.91,-1.109 -9.65,-2.629 -14.53,-3.8 2.59,-9.7 5.28,-19.391 8.03,-29.059 4.42,1.059 8.72,2.441 13.16,3.449 l -6.66,29.41"
         style="fill:#040606;fill-opacity:1;fill-rule:nonzero;stroke:none"
         id="path86" />
      <path
         d="m 2305.91,303.102 c -5.24,-4.981 -10.91,-9.84 -16.31,-14.762 9.82,-4.68 19.65,-9.34 29.46,-14.039 2.5,2.328 5.2,4.59 7.66,6.929 l -20.81,21.872"
         style="fill:#040606;fill-opacity:1;fill-rule:nonzero;stroke:none"
         id="path88" />
      <path
         d="m 1864.89,318.223 -24.87,-17.102 c 2.12,-3.09 4.2,-5.93 6.31,-8.941 9.7,4.07 19.15,8.031 28.5,11.949 -3.3,4.652 -6.59,9.211 -9.94,14.094"
         style="fill:#040606;fill-opacity:1;fill-rule:nonzero;stroke:none"
         id="path90" />
      <path
         d="m 3091.75,338.941 c 2.27,2.18 4.79,3.969 7.5,5.372 -2.57,-1.493 -5.13,-3.243 -7.5,-5.372"
         style="fill:#040606;fill-opacity:1;fill-rule:nonzero;stroke:none"
         id="path92" />
      <path
         d="m 3429.8,271.391 c -43.37,12 -81.98,23.461 -116.93,34.531 43.91,-14.5 88.31,-27.613 133.01,-39.859 l 0.33,0.816 -16.41,4.512"
         style="fill:#040606;fill-opacity:1;fill-rule:nonzero;stroke:none"
         id="path94" />
      <path
         d="m 2930.46,220 c 44.77,45.059 90.16,90.832 106.31,106.48 l 20.47,20.469 c 1.03,1.301 2.2,2.371 3.27,3.59 L 2930.13,220.191 2930.46,220"
         style="fill:#040606;fill-opacity:1;fill-rule:nonzero;stroke:none"
         id="path96" />
      <path
         d="m 3129.66,375.891 c -3.53,0.851 -6.99,1.289 -10.55,1.55 3.51,-0.222 7.01,-0.73 10.55,-1.55"
         style="fill:#040606;fill-opacity:1;fill-rule:nonzero;stroke:none"
         id="path98" />
      <path
         d="m 3098.12,375.371 c -6.12,-1.641 -11.85,-4.152 -17.28,-7.609 5.51,3.308 11.27,5.937 17.28,7.609"
         style="fill:#040606;fill-opacity:1;fill-rule:nonzero;stroke:none"
         id="path100" />
      <path
         d="m 3100.29,344.859 c 2.86,1.34 5.89,2.25 9.01,2.731 -3.26,-0.438 -6.32,-1.309 -9.01,-2.731"
         style="fill:#040606;fill-opacity:1;fill-rule:nonzero;stroke:none"
         id="path102" />
      <path
         d="m 3100.29,376.051 c 3.34,0.808 6.74,1.238 10.18,1.5 -3.48,-0.219 -6.8,-0.719 -10.18,-1.5"
         style="fill:#040606;fill-opacity:1;fill-rule:nonzero;stroke:none"
         id="path104" />
      <path
         d="m 3116.01,348.199 c -1.96,0.192 -3.41,-0.34 -5.13,-0.469 2.19,0.231 4.41,0.059 6.63,-0.128 -0.49,0.211 -1.01,0.39 -1.5,0.597"
         style="fill:#040606;fill-opacity:1;fill-rule:nonzero;stroke:none"
         id="path106" />
      <path
         d="m 3069.62,359.652 c 0.22,0.188 0.44,0.348 0.65,0.528 -0.13,-0.129 -0.3,-0.18 -0.43,-0.309 l -0.22,-0.219"
         style="fill:#040606;fill-opacity:1;fill-rule:nonzero;stroke:none"
         id="path108" />
      <path
         d="m 3142.16,371.66 c 2.83,-1.262 5.66,-2.398 8.47,-4.078 1.52,-0.68 3.09,-1.223 4.61,-1.883 -3.42,1.68 -7.17,3.383 -10.36,5.043 -0.88,0.457 -1.84,0.508 -2.72,0.918"
         style="fill:#040606;fill-opacity:1;fill-rule:nonzero;stroke:none"
         id="path110" />
      <path
         d="m 3445.88,266.063 c -44.7,12.246 -89.1,25.359 -133.01,39.859 -67.51,21.398 -119.65,41.18 -157.63,59.777 -1.52,0.66 -3.09,1.203 -4.61,1.883 -2.81,1.68 -5.64,2.816 -8.47,4.078 -4.07,1.91 -8.26,3.199 -12.5,4.231 -3.54,0.82 -7.04,1.328 -10.55,1.55 -2.89,0.2 -5.76,0.289 -8.64,0.11 -3.44,-0.262 -6.84,-0.692 -10.18,-1.5 -0.74,-0.172 -1.44,-0.481 -2.17,-0.68 -6.01,-1.672 -11.77,-4.301 -17.28,-7.609 -3.64,-2.321 -7.39,-4.461 -10.57,-7.582 -0.21,-0.18 -0.43,-0.34 -0.65,-0.528 l -9.11,-9.113 c -1.07,-1.219 -2.24,-2.289 -3.27,-3.59 L 3036.77,326.48 C 3020.62,310.832 2975.23,265.059 2930.46,220 l 17.15,-9.539 c 3.25,-1.809 6.46,-3.66 9.69,-5.481 27.57,27.559 59.56,59.551 59.56,59.551 l 40.94,40.93 c 0,0 20.46,20.469 20.46,20.48 4.39,4.161 8.15,8.008 11.86,11.528 l 1.05,1.062 c 0.17,0.168 0.4,0.239 0.58,0.41 2.37,2.129 4.93,3.879 7.5,5.372 0.35,0.179 0.69,0.378 1.04,0.546 2.69,1.422 5.75,2.293 9.01,2.731 0.52,0.082 1.05,0.09 1.58,0.14 1.72,0.129 3.17,0.661 5.13,0.469 0.49,-0.207 1.01,-0.386 1.5,-0.597 4.55,-0.403 9.09,-1.383 13.39,-3.622 6.39,-3.308 13.34,-6.667 20.58,-10.05 92.32,-37.688 187.18,-68.258 283.32,-94.961 1.67,4.051 3.29,8.07 4.96,12.14 l 6.12,14.954"
         style="fill:#040606;fill-opacity:1;fill-rule:nonzero;stroke:none"
         id="path112" />
      <path
         d="m 4344.01,215.68 -9.31,-28.707 c 9.32,-3.032 19.07,-6.172 29.12,-9.371 -4.26,11.91 -8.39,23.828 -12.66,35.777 -2.34,0.762 -4.85,1.551 -7.15,2.301"
         style="fill:#040606;fill-opacity:1;fill-rule:nonzero;stroke:none"
         id="path114" />
      <path
         d="m 4804.12,381.82 c 1.14,-3.179 2.13,-6.441 3.25,-9.64 11.18,-1.668 22.37,-3.348 33.54,-5.059 -2.78,8.309 -5.43,16.66 -8.37,24.899 l -28.42,-10.2"
         style="fill:#040606;fill-opacity:1;fill-rule:nonzero;stroke:none"
         id="path116" />
      <path
         d="m 4638.98,851.43 18.87,-23.578 c 3.12,2.5 6.18,5.078 9.22,7.679 2.83,2.379 5.66,4.789 8.75,7.282 1.28,1.046 2.56,2.089 3.84,3.148 -11.33,3.531 -22.54,7.301 -33.61,11.328 -2.34,-1.969 -4.67,-3.949 -7.07,-5.859"
         style="fill:#040606;fill-opacity:1;fill-rule:nonzero;stroke:none"
         id="path118" />
      <path
         d="m 4442.28,987.039 9.27,8.621 c -6.1,8.5 -11.3,17.35 -15.79,26.48 l -14,-13 20.52,-22.101"
         style="fill:#040606;fill-opacity:1;fill-rule:nonzero;stroke:none"
         id="path120" />
      <path
         d="m 6603.88,3409.83 c -28.24,191.28 -49.27,385.29 -12.42,577.09 -63.11,-81.59 -50.12,-192.71 -50.08,-288.98 3.14,-98.24 11.54,-196.39 25.85,-293.72 26.51,-180.72 75.52,-407.77 262.98,-485.06 0.53,0.43 1.18,0.95 1.7,1.38 8.18,6.67 15.44,14.22 22.23,22.13 -181.69,74.35 -223.15,290.44 -250.26,467.16"
         style="fill:#040606;fill-opacity:1;fill-rule:nonzero;stroke:none"
         id="path122" />
      <path
         d="m 6831.91,2920.54 c -0.52,-0.43 -1.17,-0.95 -1.7,-1.38 8.06,-3.33 15.98,-6.81 24.57,-9.56 0,0 9.38,28.68 9.39,28.68 -3.51,1.3 -6.62,3 -10.03,4.39 -6.79,-7.91 -14.05,-15.46 -22.23,-22.13"
         style="fill:#040606;fill-opacity:1;fill-rule:nonzero;stroke:none"
         id="path124" />
      <path
         d="m 6032.68,3183.74 c -264.73,-134.88 -560.95,-264.34 -724.33,-525.71 199.96,228.93 483.02,348.73 724.33,525.71"
         style="fill:#040606;fill-opacity:1;fill-rule:nonzero;stroke:none"
         id="path126" />
      <path
         d="m 5551.17,2602.31 c 99.17,90.42 204.91,156.94 326.52,213.32 -133.43,-12.2 -260.31,-97.6 -326.52,-213.32"
         style="fill:#040606;fill-opacity:1;fill-rule:nonzero;stroke:none"
         id="path128" />
      <path
         d="m 2337.15,1482.16 c -65.31,0 -100.54,168.43 -100.54,326.89 0,158.48 35.23,326.91 100.54,326.91 65.3,0 100.54,-168.43 100.54,-326.91 0,-158.46 -35.24,-326.89 -100.54,-326.89"
         style="fill:#30302e;fill-opacity:1;fill-rule:nonzero;stroke:none"
         id="path130" />
      <path
         d="m 2337.15,2145.96 c -34.9,0 -62.91,-36.11 -83.25,-107.33 -17.6,-61.59 -27.29,-143.12 -27.29,-229.57 0,-86.46 9.69,-167.99 27.29,-229.58 20.34,-71.22 48.35,-107.33 83.25,-107.33 34.9,0 62.91,36.11 83.25,107.33 17.6,61.59 27.29,143.12 27.29,229.58 0,86.45 -9.69,167.98 -27.29,229.57 -20.34,71.22 -48.35,107.33 -83.25,107.33 z m 0,-20 c 50.01,0 90.54,-141.89 90.54,-316.9 0,-175.02 -40.53,-316.91 -90.54,-316.91 -50.01,0 -90.54,141.89 -90.54,316.91 0,175.01 40.53,316.9 90.54,316.9"
         style="fill:#040606;fill-opacity:1;fill-rule:nonzero;stroke:none"
         id="path132" />
      <path
         d="m 3132.6,1530.33 c -62.58,0.02 -119.08,159.64 -140.46,309.83 -22.35,156.88 -11.21,328.6 53.44,337.81 1.72,0.24 3.43,0.36 5.16,0.36 62.58,0 119.08,-159.63 140.47,-309.83 12.07,-84.69 13.96,-165.79 5.35,-228.35 -9.29,-67.45 -29.62,-105.3 -58.8,-109.46 -1.71,-0.24 -3.42,-0.36 -5.14,-0.36 -0.01,0 -0.01,0 -0.02,0"
         style="fill:#30302e;fill-opacity:1;fill-rule:nonzero;stroke:none"
         id="path134" />
      <path
         d="m 3050.74,2188.33 c -2.19,0 -4.4,-0.16 -6.56,-0.47 -34.55,-4.92 -57.19,-44.61 -67.29,-117.99 -8.74,-63.45 -6.84,-145.54 5.35,-231.13 21.84,-153.35 78.21,-318.41 150.37,-318.41 2.19,0 4.4,0.15 6.56,0.46 34.55,4.92 57.19,44.62 67.29,117.99 8.74,63.46 6.84,145.54 -5.35,231.13 -21.84,153.36 -78.21,318.42 -150.37,318.42 z m 0,-20 c 48.75,0 106.52,-132.32 130.57,-301.24 24.68,-173.27 4.55,-319.45 -44.96,-326.5 -1.24,-0.17 -2.49,-0.26 -3.74,-0.26 -48.76,0 -106.52,132.32 -130.57,301.23 -24.68,173.27 -4.55,319.45 44.96,326.5 1.24,0.18 2.48,0.27 3.74,0.27"
         style="fill:#040606;fill-opacity:1;fill-rule:nonzero;stroke:none"
         id="path136" />
      <path
         d="m 2737.7,5586.25 c -3.78,-12.91 -15.12,-24.99 -30.39,-32.29 -14.59,-6.98 -32.39,-10.23 -56.03,-10.17 -21.01,0.12 -41.88,2.93 -62.22,8.4 24.94,11.14 42.77,30.49 58.68,47.76 14.3,15.52 27.3,28.74 41.56,33.31 12.88,4.14 28.62,0.4 38.29,-9.03 9.69,-9.41 13.82,-25.03 10.11,-37.98 z m -66.76,104.51 c -28.33,-9.05 -48.13,-28.78 -67.58,-49.91 -13.95,-15.12 -27.12,-29.4 -42,-34.81 -9.82,-3.49 -21.02,-0.35 -22.85,3.51 -1.06,2.25 -2.06,8.35 3.25,23.93 30.77,90.38 124.17,156.42 219.52,156.42 2.65,0 5.3,-0.05 7.92,-0.15 14.42,-0.56 49.43,-4.13 63.4,-25.13 8.2,-12.32 9.05,-31.92 2.24,-51.15 -7.63,-21.54 -22.87,-41.36 -37.61,-60.52 -3.8,-4.94 -5.83,-10.67 -6.19,-16.46 -5.01,11.52 -12.2,22.12 -21.36,31.02 -25.73,25.06 -64.52,34.23 -98.74,23.25 z m 260.46,81.53 c -4.19,-25.06 -17.27,-49.83 -31.48,-75.12 -31.8,-56.7 -71.18,-122.18 -121.96,-177.96 -51.99,-57.13 -108.94,-96.39 -169.18,-116.7 -38.35,-12.91 -72.06,-15.41 -100.33,-7.53 -30.56,8.56 -54.55,31.57 -59.74,57.24 -4.31,21.16 2.95,46.12 10.11,67.85 4.89,14.89 7.78,17.9 8.81,18.51 3.77,1.91 22.93,-9.05 30.51,-13.47 46.36,-26.96 99.17,-41.37 152.79,-41.68 32.83,0.32 59.36,5.05 82.43,16.08 31.01,14.84 53.71,40.32 62.31,69.97 4.36,15.16 4.86,31.09 1.86,46.32 1.5,-1.89 3.24,-3.63 5.24,-5.18 13.18,-10.12 32.13,-7.67 42.33,5.54 15.94,20.75 35.81,46.57 46.63,77.15 13.23,37.36 9.9,76.53 -8.88,104.75 -20.98,31.55 -60.51,50.03 -111.29,51.99 -126.38,5.34 -246.4,-78.03 -286.92,-197.09 -4.87,-14.26 -10.14,-34.25 -5.63,-54.74 -12.09,1.95 -25.06,0.95 -38.17,-5.55 -25.88,-12.8 -34.99,-40.43 -39.38,-53.74 -9.55,-29.08 -19.13,-63.09 -11.94,-98.68 9.7,-48.06 49.99,-88.63 102.63,-103.39 40.2,-11.23 85.89,-8.43 135.9,8.44 70.09,23.62 135.55,68.47 194.53,133.27 7.28,7.98 14.3,16.12 21.13,24.36 -43.26,-59.25 -85.12,-101.39 -130.3,-131.48 -61.98,-41.28 -132.54,-58.57 -193.82,-47.32 -66.73,12.2 -123.11,61.61 -137.14,120.14 -9.7,40.56 0.06,81.5 9.93,108.69 14.06,38.79 37.05,75.3 57.48,106.52 44.94,68.71 96.32,136.74 167.32,168.91 45.54,20.63 97.5,25.6 148.61,25.6 24.72,0 49.28,-1.17 72.77,-2.29 31.74,-1.5 61.6,-4.2 78.34,-20.42 15.44,-14.99 17.62,-40.29 14.5,-58.99 z m -601.77,-485.11 c 13.68,-9.56 32.45,-6.23 42.03,7.43 9.55,13.66 6.22,32.48 -7.42,42.03 -57.77,40.4 -97.12,106.34 -105.25,176.37 -8.11,70.06 15.12,143.24 62.13,195.76 34.86,38.94 81.52,66.91 126.64,93.93 71.77,43.01 142.19,84.86 214.9,124 55.61,29.93 120.57,62.5 187.36,69.97 28.27,3.2 67.94,2.45 95.82,-19.11 41,-31.63 42.88,-96.62 40.38,-132.55 -0.3,-3.89 -0.62,-7.79 -1,-11.71 -5.75,15.87 -14.62,30 -26.29,41.32 -34.55,33.45 -84.48,35.81 -117.52,37.39 -78.9,3.69 -168.32,7.97 -249.14,-28.64 -85.06,-38.53 -143,-114.5 -192.93,-190.84 -22.28,-34.03 -47.42,-74.1 -63.72,-118.97 -18.19,-50.15 -22.28,-99.69 -11.88,-143.33 19.75,-82.35 94.08,-148.86 184.98,-165.48 15.74,-2.89 31.92,-4.3 48.33,-4.3 63.34,0 130.36,21.13 189.84,60.76 57.83,38.52 109.94,93.24 163.99,172.21 82.18,120.02 127.8,236.9 135.52,347.36 5.84,82.85 -16.77,148.39 -63.66,184.57 -34.72,26.8 -82.88,37.63 -139.44,31.3 -77.49,-8.67 -148.63,-44.18 -209.23,-76.81 -73.86,-39.75 -144.95,-81.98 -217.31,-125.35 -46.72,-27.99 -99.65,-59.7 -140.62,-105.46 -58.33,-65.21 -87.15,-156.03 -77.1,-242.96 10.08,-86.92 58.88,-168.76 130.59,-218.89"
         style="fill:#040606;fill-opacity:1;fill-rule:nonzero;stroke:none"
         id="path138" />
      <path
         d="m 4227.97,4806.2 c 24.05,73.67 48.93,149.84 94.76,211.27 36.19,48.51 99.86,99.07 171.98,99.07 2.36,0 4.74,-0.06 7.13,-0.17 9.82,-0.46 13.68,-2.3 14.3,-2.3 0,0 0.03,0.01 0.06,0.01 0.91,-3.33 -1.01,-13.39 -1.63,-16.74 -10.25,-54.16 -20.83,-110.16 -43.82,-159.28 -1.42,-3 -2.86,-5.96 -4.37,-8.87 -28.14,-7.78 -50.84,-28.98 -60.56,-38.05 l -67.56,-63.07 c -4.24,0.81 -7.28,2.37 -8.52,4.49 -1.06,1.85 -3.03,7.77 1.27,23.23 13.53,48.76 53.35,90.34 101.48,105.93 15.86,5.13 24.55,22.15 19.42,38 -5.1,15.85 -22.19,24.58 -37.99,19.41 -67.94,-21.97 -121.99,-78.4 -141.09,-147.2 -7.72,-27.87 -6.25,-50.58 4.57,-69.43 4.04,-7.01 8.99,-12.86 14.56,-17.65 l -46.63,-43.54 c -7.25,-6.78 -14.79,-13.83 -22.28,-21.31 -0.06,0.06 -0.09,0.12 -0.15,0.2 -13.7,19.83 -5.66,53.06 5.07,86 z m 202.69,-74.7 c -35.69,-22.39 -82.88,-34.31 -136.46,-34.49 -2.74,0.03 -5.1,0.02 -7.75,0.11 0.03,0.03 0.06,0.04 0.09,0.07 l 76.33,71.27 c 9.82,1.47 19.43,4.11 28.33,7.65 40.82,16.27 77.31,46.58 106.01,87.46 3.01,-6.54 4.51,-16.33 3.66,-26.33 -3.51,-40.25 -30.42,-80.78 -70.21,-105.74 z m 291.61,606.18 c -103.68,70.33 -242,91.27 -369.95,55.97 -118.75,-32.7 -225.94,-110.73 -301.78,-219.71 -68.2,-97.94 -110.17,-219.33 -121.4,-351.07 -8.14,-95.56 1.53,-181.27 28.71,-254.73 33.01,-89.27 92.31,-160.6 166.94,-200.83 14.76,-7.87 32.98,-2.42 40.87,12.24 7.93,14.68 2.45,32.98 -12.23,40.9 -61.69,33.26 -111.05,93.15 -138.99,168.65 -24.05,65.07 -32.54,142 -25.17,228.64 10.34,121.21 48.66,232.46 110.79,321.72 67.82,97.42 163.1,167.04 268.3,196.01 111.14,30.61 230.8,12.78 320.02,-47.75 43.83,-29.73 76.37,-66.93 94.11,-107.56 24.93,-57.13 22.25,-125.2 17.12,-178.11 -14.29,-147.43 -56.32,-272.69 -124.88,-372.32 -78.6,-114.16 -192.81,-190.83 -313.36,-210.37 -41.5,-6.71 -74.66,-4.69 -101.18,6.23 -23.14,9.52 -45.42,27.66 -66.2,53.94 -47.39,59.83 -72.56,141.43 -70.91,229.76 1.41,75.87 21.36,155.92 60.98,244.75 32.36,72.55 66.49,124.61 107.46,163.87 48.75,46.75 109.2,73.79 165.82,74.2 0.41,0 0.85,0 1.26,0 61.63,0 118.87,-32.89 142.77,-82.14 26.21,-54.04 13.21,-121.73 -2.94,-180.81 -28.74,-105.1 -69.47,-207.09 -121.14,-303.13 -15.3,-28.45 -33.87,-60.11 -60.75,-75.87 -29.2,-17.11 -69.05,-16.16 -104.07,-12.95 -46.48,4.23 -73.45,15.13 -84.82,34.34 -9.26,15.63 -7.87,39.86 3.53,61.73 1.8,3.43 3.78,6.79 5.93,10.11 16.5,-4.48 35.31,-6.74 56.41,-6.74 0.3,0 0.59,0 0.86,0 65.84,0.22 122.46,14.93 168.35,43.71 56.32,35.36 93.05,92.03 98.26,151.66 3.22,37.08 -9.37,69.33 -32.77,86.64 24.26,54.23 35.13,111.76 45.65,167.48 2.57,13.51 7.31,38.67 -6.8,60.47 -12,18.56 -32.98,28.67 -62.4,30.06 -84.15,3.71 -169.91,-42.12 -230.34,-123.11 -51.72,-69.37 -79.37,-153.97 -103.74,-228.63 -10.47,-32.11 -29.95,-91.88 2.68,-139.07 3.27,-4.73 6.93,-9.14 10.93,-13.19 -2.3,-3.71 -4.48,-7.55 -6.54,-11.48 -21.16,-40.59 -21.93,-86.73 -1.94,-120.43 29.06,-49.02 88.86,-59.82 131.27,-63.68 44.57,-4.04 96.17,-4.73 140.09,21 40.35,23.67 64.19,63.69 83.38,99.36 53.79,100.05 96.26,206.3 126.21,315.81 19.1,69.89 33.92,151.05 -1.01,223.07 -33.74,69.63 -112.82,116.15 -197.09,116.15 -0.56,0 -1.12,0 -1.71,0 -72.91,-0.54 -146.48,-32.84 -207.14,-90.98 -46.77,-44.84 -85.15,-102.95 -120.78,-182.87 -43,-96.35 -64.66,-184.09 -66.23,-268.21 -1.88,-102.29 27.92,-197.59 83.94,-268.34 27.3,-34.47 57.74,-58.8 90.55,-72.3 23.78,-9.79 50.25,-14.65 80.05,-14.65 16.83,0 34.72,1.55 53.79,4.64 136.7,22.17 265.53,108.1 353.42,235.75 74.42,108.17 119.92,242.98 135.22,400.72 5.84,60.17 8.61,138.2 -21.9,208.07 -22.28,51.11 -62.25,97.22 -115.51,133.38"
         style="fill:#040606;fill-opacity:1;fill-rule:nonzero;stroke:none"
         id="path140" />
      <path
         d="m 1579.94,5364.31 c -38.94,62.22 -51.84,137.95 -90.68,200.23 -26.86,-35.02 -36.49,-80.6 -37.12,-124.73 -0.63,-44.13 6.92,-87.92 10.84,-131.88 1.35,-15.19 -0.57,-34.82 -15.15,-39.25 -8.11,-2.47 -17.45,1.2 -25.09,-2.45 -11.65,-5.57 -10.44,-22.32 -7.4,-34.87 19.13,-78.92 38.41,-158.32 70.97,-232.71 9.99,-22.82 21.53,-45.58 39.45,-62.88 17.92,-17.3 43.36,-28.48 67.83,-23.81 13.02,2.48 25.83,10.16 30.85,22.44 6.58,16.05 -1.74,34.33 -12.28,48.1 -32.03,41.84 -60.66,89.76 -77.88,140.02 25.37,2.34 45.74,-19.31 62.64,-38.38 18.1,-20.42 37.39,-40.27 60.66,-54.52 23.28,-14.24 51.13,-22.55 78.06,-18.14 26.94,4.4 52.25,23.17 59.87,49.38 6.89,23.69 -1.03,49.21 -12.3,71.15 -47.22,91.93 -148.45,144.7 -203.27,232.3"
         style="fill:#884f2b;fill-opacity:1;fill-rule:nonzero;stroke:none"
         id="path142" />
      <path
         d="m 1860.03,5485.08 c 8.13,-5.52 12.8,-14.74 17.13,-23.55 20.87,-42.5 41.74,-85 62.62,-127.5 7.4,-15.07 15.04,-30.47 27.15,-42.11 12.12,-11.63 29.8,-18.93 45.93,-14.27 18.54,5.36 29.97,25.17 31.34,44.42 1.37,19.25 -5.27,38.1 -12.35,56.05 -25.34,64.17 -57.76,125.54 -96.48,182.64 34.45,-12.24 57.35,-44.47 75.81,-76.03 18.47,-31.55 35.95,-65.58 66.01,-86.39 8.45,-5.86 20.11,-10.43 28.55,-4.57 10.56,7.33 6.99,23.54 2.27,35.49 -11.7,29.72 -23.42,59.43 -35.13,89.14 22.24,-10.69 44.48,-21.38 66.72,-32.07 4.32,-2.08 9.09,-4.21 13.75,-3.08 10.87,2.64 10.47,18.2 7.16,28.88 -24.09,77.61 -68.56,148.8 -127.73,204.49 -0.79,-17.42 -1.58,-34.84 -2.38,-52.26 -22.33,2.08 -39.4,20.4 -52.62,38.52 -13.22,18.12 -26.03,38.29 -46.49,47.5 -14.76,6.65 -36.77,3.27 -40.64,-12.45 -3.27,-13.31 8.6,-26.29 7.32,-39.95 -1.8,-19.26 -29.02,-26.2 -45.95,-16.84 -16.93,9.37 -26.31,27.77 -37.11,43.82 -10.79,16.07 -26.74,31.9 -46.06,30.81 -13.56,-0.76 -25.51,-10.14 -32.56,-21.74 -7.06,-11.6 -9.97,-25.22 -12.04,-38.64 -5.29,-34.22 -5.94,-69.15 -1.92,-103.55 1.58,-13.54 3.88,-27.36 1.02,-40.69 -2.85,-13.34 -12.34,-26.34 -25.79,-28.6 -21.05,-3.52 -36.26,18.6 -47.76,36.58 -13.72,21.42 -30.19,41.1 -48.85,58.38 -14.49,13.42 -37.27,25.55 -52.46,12.94 -10.79,-8.95 -10.69,-25.31 -8.9,-39.21 11.18,-86.7 53.12,-169.12 116.65,-229.18 44.13,-41.74 98.3,-73.1 136.21,-120.56 18.4,-23.05 32.35,-49.25 43.99,-76.25 12.99,-30.13 39.12,-88.01 82.25,-67.56 45.04,21.35 46.58,86.95 35.21,127.68 -8.24,29.48 -23.04,56.64 -37.71,83.5 -26.23,48.01 -52.45,96.02 -78.68,144.03 -5.08,9.31 -10.08,21.17 -3.95,29.82 5.68,8.02 18.35,7.88 26.47,2.36"
         style="fill:#884f2b;fill-opacity:1;fill-rule:nonzero;stroke:none"
         id="path144" />
      <path
         d="m 3753.24,3799.79 c -14.49,6.34 -28.97,14.49 -44.97,16.6 -15.99,2.12 -34.4,-3.01 -41.95,-17.2 -11.47,-20.52 5.43,-45.87 24.75,-59.15 1.11,-0.77 2.3,-1.32 3.43,-2.05 41.63,13.83 77.42,29.25 106.27,45.81 -16.15,4.16 -32.1,9.13 -47.53,15.99"
         style="fill:#bc6d1d;fill-opacity:1;fill-rule:nonzero;stroke:none"
         id="path146" />
      <path
         d="m 4252.74,3954.62 c -13.28,-7.24 -28.98,-6.94 -43.76,-5.13 -36.82,4.53 -76.97,9.36 -105.64,35.62 -5.13,4.82 -10.26,10.56 -12.37,17.5 -2.42,6.64 -1.81,15.09 3.01,20.52 4.84,5.74 12.98,7.25 20.53,8.15 54.02,6.04 109.86,-8.15 154.53,-39.23 6.03,-13.58 -3.02,-30.18 -16.3,-37.43 z m -257.75,-548.69 c -6.34,-6.03 -16.6,-4.22 -25.05,-1.81 -25.05,6.64 -49.8,13.58 -74.85,20.22 -22.63,6.04 -45.57,6.94 -53.12,32.6 -2.11,7.24 -1.2,16.3 4.53,21.43 5.74,5.13 13.88,5.43 21.43,4.83 41.35,-2.12 82.09,-16.91 115.29,-41.96 5.74,-4.22 11.47,-9.05 14.49,-15.39 2.71,-6.64 2.41,-15.09 -2.72,-19.92 z m 409.86,495.27 c 14.49,0.61 28.97,-3.92 43.46,-2.71 36.22,2.71 61.57,42.25 59.15,78.47 -2.71,36.21 -26.55,67.9 -54.62,91.14 -79.98,66.7 -191.95,78.78 -296.38,80.59 -89.63,1.51 -188.03,-6.04 -253.22,-67.61 -10.56,-9.96 -20.22,-21.73 -23.54,-35.91 -3.62,-13.89 0.6,-30.79 12.98,-38.33 7.85,-4.53 17.5,-5.44 24.75,-11.17 14.79,-12.07 5.73,-38.63 -11.77,-46.78 -17.51,-8.15 -38.03,-3.92 -56.74,0.6 -18.72,4.23 -39.54,8.45 -56.75,0 -22.03,-10.86 -30.48,-40.14 -22.63,-63.38 7.85,-23.24 28.97,-40.14 51.91,-49.19 11.8,-4.51 24.1,-7.23 36.58,-9.12 1.55,1.75 3.3,3.48 4.7,5.24 26,32.51 73.48,37.83 106.05,11.79 9.87,-7.9 16.91,-17.88 21.65,-28.71 10.07,-0.82 20.17,-1.65 30.22,-2.44 12.37,-1.21 28.37,-5.44 29.27,-17.81 1.21,-13.88 -17.2,-19.62 -31.39,-20.82 -7.55,-0.51 -15.18,-0.99 -22.78,-1.47 -2.04,-12.32 -6.82,-24.35 -15.18,-34.8 -10.33,-12.92 -22.28,-24.93 -35.18,-36.37 19.43,-3.48 38.14,-9.17 55.64,-18.51 8.15,-4.53 16.9,-11.17 16.6,-20.52 -0.61,-14.19 -19.62,-17.81 -33.8,-17.21 -44.24,1.1 -88.55,-1.16 -132.52,-6.36 -81.07,-41.5 -178.6,-68.59 -268.8,-86.14 -6.8,-5.77 -13.52,-11.93 -20.31,-18.87 -26.26,-26.86 -51.91,-51.3 -28.37,-92.65 14.48,-25.35 42.25,-40.74 70.62,-47.69 28.37,-6.94 57.95,-6.64 86.92,-8.45 45.88,-2.71 91.45,-10.56 135.51,-23.24 4.83,-1.2 10.26,-3.01 13.29,-7.54 5.12,-6.94 0.6,-17.51 -6.95,-21.73 -7.24,-4.53 -16.29,-4.53 -25.05,-4.53 -40.14,0.3 -80.28,0.6 -120.42,1.21 -13.28,0 -28.67,-0.91 -36.82,-11.47 -9.66,-12.68 -2.42,-32.29 10.86,-40.74 13.29,-8.76 30.19,-9.66 45.88,-9.96 69.41,-1.82 138.83,-1.82 208.25,-0.61 44.67,0.91 94.77,5.13 124.04,38.93 8.15,9.36 14.19,20.53 23.54,28.68 19.32,16.6 47.39,16.6 72.74,14.18 27.16,-3.02 54.93,-7.54 81.79,-1.51 26.86,6.04 52.52,26.56 54.33,54.03 2.71,37.72 -39.24,63.98 -76.96,66.7 -37.73,3.02 -76.36,-7.25 -113.48,0.6 -18.72,4.23 -38.33,15.39 -42.26,34.1 -3.92,19.32 11.17,38.64 29.58,46.18 18.41,7.25 38.93,6.04 58.55,5.13 91.75,-4.83 183.8,-1.81 274.95,9.36 20.22,2.41 40.74,5.73 57.64,16.3 17.2,10.86 29.58,31.69 24.45,51 -7.85,31.09 -48.89,37.43 -80.89,37.13 -30.18,0 -60.66,-0.31 -90.84,-0.61 -9.66,0 -19.92,0 -28.67,4.53 -8.75,4.53 -15.39,15.09 -12.07,24.14 2.11,6.04 7.54,10.26 12.98,12.98 24.74,13.28 54.32,11.77 82.09,8.45 27.46,-3.32 56.13,-7.84 82.99,0.3 26.56,8.15 50.4,33.5 46.18,60.97 -3.02,20.52 -20.52,36.22 -39.23,45.27 -19.02,8.75 -39.54,12.98 -58.55,21.43 -13.89,6.03 -28.38,17.81 -26.57,32.59 1.82,14.49 18.11,22.64 32.6,22.94"
         style="fill:#bc6d1d;fill-opacity:1;fill-rule:nonzero;stroke:none"
         id="path148" />
      <path
         d="m 6451.55,5024.66 29.95,3.98 -2.56,19.17 c -9.34,-3.47 -18.97,-7.14 -28.99,-11.08 l 1.6,-12.07"
         style="fill:#040606;fill-opacity:1;fill-rule:nonzero;stroke:none"
         id="path150" />
      <path
         d="m 6451.32,5873.07 -23.94,-18.39 5.54,-7.2 c 11.73,1.2 23.5,2.65 35.21,3.74 l -16.81,21.85"
         style="fill:#040606;fill-opacity:1;fill-rule:nonzero;stroke:none"
         id="path152" />
      <path
         d="m 3405.39,246.859 c -11.08,-27.019 -22.01,-53.898 -32.95,-80.808 l -9.87,-24.262 c -10.11,-25.078 -21.72,-50.3085 -42.56,-59.0585 -18.01,-7.6407 -40.47,-1.9805 -61.99,5.1797 -85.06,29.1488 -164.16,74.2188 -240.8,117.8398 -9.16,5.129 -18.24,10.281 -27.35,15.469 -3.39,1.953 -6.78,3.863 -10.19,5.812 l 110.44,110.438 c -3.71,-3.52 -7.47,-7.367 -11.86,-11.528 0,-0.011 -20.46,-20.48 -20.46,-20.48 l -40.94,-40.93 c 0,0 -31.99,-31.992 -59.56,-59.551 5.89,-3.332 11.78,-6.64 17.66,-9.988 9.17,-5.222 18.33,-10.461 27.47,-15.531 77.69,-44.242 158.07,-90.0118 245.93,-120.1407 17.03,-5.6601 34.72,-10.418 52.22,-10.418 10.5,0 20.96,1.6993 31.16,6 31.48,13.2696 46.86,45.9497 58.8,75.5387 l 9.87,24.258 c 11.39,28 22.83,56.09 34.39,84.27 -96.14,26.703 -191,57.273 -283.32,94.961 56.9,-26.551 140.31,-55.168 253.91,-87.071"
         style="fill:#040606;fill-opacity:1;fill-rule:nonzero;stroke:none"
         id="path154" />
      <path
         d="m 7858.46,4729.07 c -38.03,67 -85.1,109.55 -147.28,162.37 -165.99,140.95 -280.38,335.01 -390.85,522.43 -22.03,37.13 -44.06,74.55 -66.4,111.37 -68.2,111.97 -151.2,237.53 -274.94,311.47 -134.3,80.28 -291.25,65.49 -443.06,51.31 -16.9,-1.51 -33.5,-3.02 -50.1,-4.53 -197.99,-17.5 -398.69,-51.01 -592.75,-83.6 -297.29,-50.1 -605.13,-101.41 -905.43,-94.47 0,0 0.01,-0.01 0.01,-0.02 -2.43,0.06 -4.88,-0.01 -7.31,0.02 h 7.3 c -0.3,0.3 -0.3,0.61 -0.61,0.91 -31.08,48.29 -64.59,95.07 -96.58,141.55 -0.3,0.3 -0.3,0.6 -0.9,0.9 -25.35,34.71 -51.91,68.81 -78.78,102.32 l -0.9,0.9 c -190.74,236.62 -413.78,445.47 -642.86,644.37 -56.13,51.61 -148.19,120.42 -197.68,176.86 -0.3,-0.61 -0.3,-1.21 -0.6,-1.81 -0.31,-0.61 -0.61,-1.51 -0.91,-2.42 0.3,0.91 0.3,1.81 0.3,2.72 v 0.3 c 0,0.91 0,1.51 -0.6,2.11 0.3,0.61 0,1.21 -0.3,1.81 0.3,-0.3 0.3,-0.6 0.9,-0.9 0.3,-0.61 0.91,-1.21 1.21,-1.81 21.13,52.51 29.88,163.88 40.14,232.99 19.62,172.94 39.54,344.37 51,518.21 7.85,290.95 21.74,814.89 28.38,1105.23 -7.25,87.22 38.63,156.94 93.86,221.23 55.83,47.38 79.38,122.53 56.14,191.65 -0.61,1.81 -158.15,313.88 -180.49,358.25 -0.6,-1.81 -1.2,-3.63 -1.81,-5.44 0,0 -0.91,9.36 -0.91,10.57 0.31,0 1.21,-2.12 2.72,-5.13 37.73,119.21 82.4,237.52 137.63,349.49 26.86,58.55 64.28,110.77 94.77,167.2 45.87,86.32 3.32,133.72 -75.76,132.52 -3.32,0 -6.94,-0.3 -10.26,-0.3 -4.53,-0.6 -9.05,-0.9 -13.89,-1.5 -81.78,-39.3 -161.46,-83.93 -240.54,-128.6 -77.56,-44.97 -154.82,-89.94 -226.35,-146.99 -17.51,-14.48 -35.01,-29.27 -49.8,-50.7 -15.09,-25.65 -14.49,-47.99 -18.11,-70.93 -9.96,-132.79 -0.3,-264.98 8.75,-397.18 2.72,3.02 4.23,4.83 4.23,4.83 l -3.62,-11.17 c -0.31,2.12 -0.31,4.23 -0.61,6.34 -48.59,-53.72 -539.03,-598.79 -539.03,-598.79 -24.14,-56.44 -35.62,-117.4 -48.29,-176.86 -28.07,-153.62 -51,-398.99 -43.16,-518.51 -191.04,-268.91 -309.96,-580.98 -404.12,-894.86 -30.18,-102.92 -57.34,-206.44 -79.68,-311.47 1.81,0.9 3.62,2.11 5.43,3.32 l -6.94,-9.96 c 0.3,2.11 0.91,4.22 1.51,6.64 -0.6,-0.3 -1.21,-0.61 -1.81,-1.21 -278.57,-161.77 -549.9,-336.82 -800.1,-541.14 -125.55,-103.53 -246.58,-213.08 -354.32,-336.22 -85.12,-99.3 -184.71,-215.19 -201.01,-347.69 -1.21,-7.84 -1.81,-15.69 -2.11,-23.54 -1.21,-21.73 0.3,-43.76 4.22,-66.4 3.93,-41.34 8.15,-106.23 12.38,-152.41 l 5.13,-30.18 9.66,-60.66 c 42.85,-261.37 125.85,-514.29 241.14,-752.12 131.29,-271.93 304.23,-524.24 507.04,-746.97 2.72,3.31 5.44,6.94 8.15,10.26 l 0.61,-20.22 c -3.02,3.31 -5.74,6.63 -8.76,9.96 -140.04,-171.13 -237.22,-370.63 -328.67,-570.12 -91.75,-204.03 -171.73,-412.58 -245.67,-623.24 -149.1,-421.03 -264.69,-852.92 -377.87,-1283.9 C 988.969,1110.37 966.027,999.602 914.719,904.531 903.25,884.91 881.52,872.539 857.98,873.141 h -83.601 c -151.813,-0.602 -432.496,1.211 -585.207,0 -11.473,0.91 -23.848,-2.11 -30.785,-12.672 -8.153,-10.567 -8.153,-26.559 0.301,-37.129 48.285,-54.02 104.726,-97.481 167.199,-133.699 96.883,-58.551 213.379,-83 323.847,-94.161 2.106,-0.3 4.219,-0.609 6.637,-0.91 11.465,6.641 21.731,13.582 30.184,20.828 l 19.914,-22.335 c -1.813,-1.813 -4.223,-3.321 -6.035,-5.133 132.793,-21.43 263.179,-60.957 387.526,-112.571 13.58,-5.437 23.24,-9.66 31.99,-17.808 19.92,-17.5 22.03,-42.559 28.97,-67.602 l 21.44,-81.187 c 1.8,-7.25 3.92,-14.492 6.03,-22.043 4.83,1.211 9.66,2.722 14.49,3.933 l 6.64,-29.582 c -4.49,-0.898 -8.7,-2.39 -13.18,-3.289 -2.74,9.649 -5.43,19.309 -8.01,28.989 -85.16,-20.571 -166.5,-51.399 -241.713,-92.457 l -3.625,-2 c -19.129,-10.524 -38.906,-21.403 -58.918,-24.672 -17.359,-2.391 -40.261,2 -49.664,18.07 -7.219,12.32 -5.656,28.91 -3.976,46.48 1.738,18.391 3.711,39.231 -4.512,58.649 -9.93,23.281 -33.598,40.609 -63.219,46.332 -24.492,4.687 -49.367,1.297 -72.445,-1.859 -3.508,-0.5 -7.016,-1 -11.586,-1.352 -188.012,-25.969 -376.024,-51.609 -564.391,-77.25 -24.2537,-3.332 -53.613,-5.07 -66.1951,11.371 -9.2578,12.18 -6.3984,30.188 0.5274,42.59 8.9023,15.738 25.1719,27.918 39.9687,37.758 102.481,69.121 225.648,102.633 344.754,135.05 64.605,17.59 131.422,35.782 195.023,59.54 36.383,13.582 63.063,28.101 83.942,45.05 -14.633,2.379 -29.293,4.52 -43.981,6.45 -14.238,-8.149 -30.824,-15.879 -50.511,-23.239 C 543.504,548.031 477.363,530.02 413.406,512.602 291.918,479.531 166.328,445.34 59.7813,373.512 42.0977,361.719 22.3789,346.813 10.2969,325.441 c -14.35549,-25.699 -13.64846,-55.41 1.7969,-75.66 24.875,-32.601 73.5664,-25.879 94.2852,-22.961 188.336,25.641 376.406,51.289 563.391,77.129 4.273,0.301 8.488,0.891 13.703,1.633 20.601,2.82 41.91,5.707 61.48,1.938 15.301,-2.95 34.133,-11.969 41.176,-28.469 5.246,-12.379 3.805,-27.742 2.242,-44 -1.945,-20.578 -4.156,-43.891 7.984,-64.61 13.973,-23.851 41.442,-33.601 66.583,-33.601 4.687,0 9.312,0.32 13.765,1 25.348,4.101 47.453,16.269 68.82,28.031 l 3.567,1.969 c 73.12,39.922 152.26,69.879 235.17,89.84 10.55,-36.801 21.41,-73.59 31.97,-110.391 6.04,-24.449 19.62,-63.0781 56.13,-74.5468 16.91,-5.4297 34.41,-3.9219 49.5,0 14.49,3.9297 27.16,9.6601 40.14,17.207 112.87,46.1718 321.09,133.6798 484.36,202.1918 20.13,-28.711 39.54,-53.731 59.09,-75.809 21.31,-24.019 42.12,-44.301 63.4,-61.871 35.31,-29.91 67.58,-44.559 98.09,-44.559 3.68,0 7.33,0.207 10.99,0.649 27.06,2.738 50.4,17 72,31.422 65.14,43.507 120.42,86.906 169.13,132.328 -9.81,4.699 -19.64,9.359 -29.46,14.039 -45.4,-41.391 -96.54,-81.25 -156.41,-121.258 -19.21,-12.793 -38.11,-24.461 -58.56,-26.531 -24.91,-3 -53.41,9.109 -86.42,37.078 -20.22,16.684 -39.91,35.902 -60.18,58.711 -17.55,19.84 -35.08,42.262 -53.2,67.789 -9.33,-3.918 -18.77,-7.879 -28.45,-11.93 -2.11,3 -4.21,5.711 -6.31,9.012 l 24.75,16.898 c 3.32,-4.828 6.64,-9.347 9.96,-13.879 48.59,20.219 92.35,38.629 126.46,52.821 53.42,14.179 109.55,17.801 159.35,-7.25 l 52.21,-24.742 c 25.66,-12.379 51.31,-24.45 76.66,-36.829 5.44,5.141 11.17,9.961 16.3,14.79 l 20.83,-21.731 c -2.42,-2.41 -5.13,-4.519 -7.55,-6.937 103.83,-49.5 207.35,-100.204 308.15,-154.223 36.22,-18.41 65.8,-44.9688 106.24,-54.3282 41.65,-10.5586 90.84,2.4101 119.81,35.0082 0,0 55.84,55.832 104.13,104.132 -3.32,1.809 -6.64,3.622 -9.66,5.43 l -17.2,9.66 c -41.05,-41.051 -81.49,-81.801 -98.39,-98.09 -22.94,-25.9605 -59.16,-35.3199 -92.05,-27.1715 -35.62,8.7615 -66.4,35.3205 -98.69,51.3125 -136.72,73.637 -276.47,139.438 -415.9,205.84 l -52.51,24.75 C 2036.85,443.359 1902.24,339.84 1778.2,294.871 l -427.36,-177.16 c -30.18,-18.4102 -72.74,-31.6915 -92.96,3.32 -25.06,61.571 -40.44,130.379 -58.85,195.571 l -21.13,80.589 c -7.25,27.758 -13.58,62.469 -38.03,82.391 -21.73,19.918 -54.02,27.469 -79.38,39.238 -130.982,50.7 -267.099,88.43 -406.838,106.231 -178.367,12.98 -350.703,82.101 -471.425,216.398 -0.602,0.301 -0.301,1.813 0.3,2.121 h 6.645 c 152.41,0.903 433.09,-1.511 585.207,0 h 83.601 c 32.293,-1.211 66.094,17.2 82.391,46.172 54.934,102.317 77.269,213.078 106.839,319.918 113.49,431.29 228.48,861.97 377.27,1282.09 73.64,209.76 153.62,418.01 244.46,620.82 93.86,204.33 194.67,411.67 341.05,583.1 -207.95,223.34 -384.21,479.58 -517.61,755.73 -96.88,200.4 -171.42,411.37 -219.11,628.37 -10.26,35.92 -13.58,81.49 -21.43,118.91 -5.13,32.9 -15.09,87.23 -16.9,119.52 l -9.66,120.72 c -11.16,79.68 3.62,158.15 46.48,224.25 130.38,204.02 310.26,370.92 495.87,524.85 250.5,204.32 523.34,380.28 803.42,542.65 l 5.74,3.32 1.2,6.64 c 96.58,420.42 231.49,845.07 480.49,1201.51 l 2.71,3.92 v 4.83 c 0.91,61.27 3.02,122.84 6.64,184.4 -5.13,0.31 -10.26,0.61 -15.39,0.91 l 2.42,30.18 c 4.82,-0.3 9.95,-0.6 14.78,-0.9 6.94,102.91 18.11,205.83 37.13,307.24 8.45,53.12 31.69,129.78 41.34,162.37 l 543.26,603.62 4.23,4.83 -0.61,6.34 c -6.94,88.43 -11.77,177.46 -13.27,266.19 2.41,62.48 -5.74,132.81 17.5,189.84 10.56,15.4 27.16,30.19 43.76,43.77 133.4,106.53 318.11,194.06 452.72,268.92 27.46,3.9 62.77,1.8 76.96,-14.5 14.18,-15.09 5.13,-47.68 -8.45,-73.64 -5.74,-13.88 -15.39,-26.56 -22.94,-39.83 -96.88,-151.82 -160.26,-321.74 -214.89,-492.26 l 2.72,-5.43 v -0.3 l 179.88,-362.48 c 7.24,-27.16 9.66,-78.77 -10.87,-110.46 -70.62,-80.28 -155.73,-174.14 -144.26,-289.74 l -2.12,-64.89 c 0,0 -3.32,-128.27 -6.63,-256.23 8.44,-5.14 17.19,-9.66 25.95,-14.79 l -15.4,-25.96 c -3.92,2.11 -7.84,4.23 -11.46,6.34 -3.02,-112.58 -6.04,-228.77 -6.04,-228.77 l -12.68,-519.12 c -18.1,-235.71 -39.23,-474.14 -77.56,-707.74 -2.11,-10.26 -4.23,-20.83 -7.24,-29.28 -0.31,-0.9 -1.21,-3.01 -1.21,-3.62 h 0.3 c -0.9,-1.21 -3.02,-3.92 -3.92,-6.34 -2.72,-5.73 -1.51,-12.07 0.6,-17.5 30.48,-43.46 73.34,-71.53 110.46,-106.24 l 98.39,-84.5 c 130.99,-112.88 259.26,-229.08 380.89,-351.61 181.69,-184.11 352.21,-381.19 480.78,-606.04 43.16,-74.54 75.15,-153.32 121.93,-228.17 -18.11,104.73 -65.79,199.8 -121.93,289.74 -0.01,0 -0.02,0 -0.03,0 -2.7,4.33 -5.49,8.6 -8.22,12.9 2.73,-4.32 5.54,-8.64 8.25,-12.9 296.98,-4.22 598.79,45.88 890.94,94.77 175.66,29.58 356.14,59.16 535.11,77.56 l -5.73,7.25 24.15,18.11 16.59,-21.73 c 6.94,0.6 13.59,1.51 20.23,2.11 16.9,1.51 33.8,3.02 50.4,4.53 146.98,13.88 299.09,28.07 424.65,-47.08 118,-70.63 198.58,-192.56 264.68,-301.21 22.34,-36.82 44.37,-73.94 66.4,-111.07 111.97,-189.53 227.57,-385.71 397.48,-529.98 61.57,-52.51 104.74,-91.44 140.05,-154.52 51.91,-91.75 70.61,-135.52 58.54,-232.1 -1.2,-11.76 -2.11,-25.95 -2.71,-41.04 -2.11,-42.26 -5.13,-99.9 -29.58,-117.41 -26.86,-19.31 -68.51,-20.22 -106.54,-2.41 -34.71,16.6 -63.98,45.27 -92.65,73.34 l -2.72,2.72 c -20.22,19.92 -41.05,39.53 -62.17,58.85 -207.04,188.63 -449.4,342.25 -684.81,491.65 l -67.91,43.16 c -33.5,21.12 -67.9,41.95 -103.82,58.55 -40.44,18.71 -82.39,31.69 -127.06,32.9 -17.81,0.6 -46.78,-5.74 -84.51,-18.11 -14.48,-4.53 -30.18,-9.96 -47.08,-16.3 l 2.72,-19.02 -30.18,-4.22 -1.51,12.07 c -240.85,-94.47 -671.23,-318.71 -975.76,-493.46 -64.88,-37.12 -123.74,-72.13 -174.14,-102.92 -3.92,-14.18 -7.85,-28.67 -12.07,-42.85 0.3,0.3 0.6,0.3 0.9,0.6 357.35,223.64 1136.92,627.16 1304.73,652.82 0,0 0,0 0.3,0 5.43,0.9 9.96,1.2 14.18,1.2 h 1.82 c 30.78,-0.6 60.96,-8.15 90.54,-19.61 43.16,-16.6 84.8,-41.65 124.64,-67.01 l 68.21,-43.15 c 257.75,-163.58 524.25,-332.9 741.85,-546.88 l 2.72,-2.72 c 30.18,-29.58 61.57,-60.06 101.11,-78.77 19.61,-9.36 43.76,-15.7 68.81,-15.7 23.24,0 47.08,5.74 67.91,20.53 17.5,12.37 26.85,33.2 32.59,56.74 0.6,1.81 1.21,3.92 1.51,5.73 5.44,25.35 6.64,53.12 8.15,78.17 0.6,14.49 1.21,27.77 2.72,38.93 13.27,110.47 -12.07,161.77 -62.18,250.81"
         style="fill:#040606;fill-opacity:1;fill-rule:nonzero;stroke:none"
         id="path156" />
      <path
         d="m 3432.69,3049.37 c 21.09,-14.88 42.04,-30.33 62.64,-46.26 287.83,-61.67 640.74,-11.8 887.54,64.59 124.38,40.33 245.78,104.09 338.52,200.34 92.68,95.59 159.12,210.31 221.51,323.77 62.09,113.97 122.23,229.22 176.15,347.59 54.15,118.21 102.73,239.24 141.71,363.6 8.63,31.31 18.08,62.72 27.24,94.29 -1.42,-0.89 -2.99,-1.85 -4.4,-2.73 l -16.03,25.55 c 10.38,6.53 21.28,13.29 32.57,20.24 21.94,80.36 38.74,161.9 31.99,245.64 -44.79,-123.17 -55.05,-251.24 -100.47,-373.73 -39.29,-122.62 -88.14,-242.13 -142.59,-359.02 -113.82,-226.85 -221.94,-471.19 -394.75,-658.73 -179.8,-186 -450.78,-239.32 -698.56,-273.14 -127.45,-15.02 -256.62,-18.11 -383.89,-3.44 -130.07,10.72 -247.97,57.05 -375.03,86.29 54.24,-34.81 115.68,-61.29 181.59,-81.16 -0.85,0.59 -1.75,1.23 -2.58,1.81 l 16.84,24.5"
         style="fill:#040606;fill-opacity:1;fill-rule:nonzero;stroke:none"
         id="path158" />
      <path
         d="m 6765.42,4040.86 c -124.82,62.41 -218.79,32.3 -223.44,30.77 C 5388.53,3627.99 4724.43,2637 4696.31,2594.44 c -25.53,-37.36 -4.39,-80.99 -2.3,-84.8 60.54,-86.31 202.13,-287.84 209.14,-295.18 38.53,-39.93 7.4,-74.14 3.81,-77.84 l -362.18,-362.17 c -32.59,-32.61 -47.48,-65.86 -44.24,-98.81 4.6,-46.27 43.77,-73.45 44.24,-73.45 0,0 0,0 0,0.02 l 211.27,-211.27 c 12.14,-12.13 17.42,-24.37 16.15,-37.44 -2.62,-26.75 -32.68,-52.44 -45.92,-61.56 l -290.52,-269.8 c 4.49,-9.13 9.69,-17.98 15.79,-26.48 l 293.36,272.67 c 2.15,1.43 52.7,35.64 57.3,82.13 2.24,22.33 -6.13,43.13 -24.82,61.82 l -213.51,213.12 c -0.32,0.21 -30.21,20.86 -33.3,53.45 -2.24,23.45 9.72,48.44 35.54,74.26 l 362.18,362.18 c 19.8,19.8 44.56,70.39 -3.01,119.67 -7.78,9.27 -127.8,179.72 -205.37,289.99 -0.15,0.3 -14.15,29.83 1.97,53.46 27.5,41.63 686.38,1024.84 1830.23,1464.79 0.82,0.32 86.74,27.22 199.8,-29.34 107.9,-53.95 276.55,-632.95 133.78,-1018.43 -7.16,-19.33 -18.05,-37.05 -31.56,-52.76 3.41,-1.39 6.52,-3.09 10.03,-4.39 l -9.39,-28.68 c -8.59,2.75 -16.5,6.23 -24.57,9.56 -144.91,-118.14 -666.23,-509.75 -1401.45,-687.62 -9.4,-0.3 -44.24,-3.33 -58.51,-29.98 -11.29,-21.14 -5.33,-49.39 17.72,-83.98 58.53,-87.8 118.36,-266.23 118.95,-268.03 l 1.71,-3.51 c 0.65,-1 15.74,-24.81 6.46,-54.02 -9.2,-28.93 -40.32,-54.72 -89.99,-74.58 L 5180,1619.39 c -33.63,-13.45 -54.85,-21.96 -56.85,-22.75 -21.25,-8.77 -40.71,-30.9 -34.84,-54.84 3.56,-13.79 41.11,-70.75 77.69,-117.71 33.1,-42.46 53.08,-68.1 50.75,-86.6 -2.86,-22.97 -39.34,-51.31 -112.05,-107.77 l -30.66,-23.86 c -30.86,-24.12 -61.42,-48.72 -91.98,-73.31 l -35.9,-28.86 c -96.94,-78.52 -193.23,-157.928 -289.38,-237.471 -3.12,-2.5 -6.19,-5.078 -9.22,-7.68 -0.5,-0.418 -1.01,-0.828 -1.51,-1.25 11.07,-4.027 22.28,-7.797 33.61,-11.328 94.98,78.57 189.94,156.879 285.42,234.229 l 35.9,28.84 c 30.47,24.52 60.89,49.01 91.63,73.05 l 30.59,23.81 c 84.24,65.39 119.08,92.46 123.5,127.86 3.86,30.92 -17.71,58.61 -57.3,109.42 -41.08,52.76 -69.44,99.18 -71.82,106 -1.54,6.31 8.07,15.86 16.56,19.38 0.91,0.34 22.52,8.99 57.06,22.83 l 245.1,98.03 c 59.51,23.8 95.73,55.45 107.73,94.06 11.76,37.85 -4.3,69.22 -9.02,77.27 -6.57,19.54 -63.52,185.98 -121.93,273.59 -15.92,23.87 -21.7,42.66 -16.24,52.93 6.04,11.39 27.02,14.09 33.92,14.15 l 3.48,0.43 c 745,179.83 1272.76,577.66 1416.77,695.32 28.56,23.33 50.34,53.69 62.98,87.78 143.01,386.16 -16.44,989.85 -148.57,1055.92"
         style="fill:#040606;fill-opacity:1;fill-rule:nonzero;stroke:none"
         id="path160" />
      <path
         d="m 6475.57,5071.92 -30.18,226.66 c -1.51,13.58 2.71,26.86 12.37,36.52 l 184.71,184.71 c 26.26,25.95 28.97,67.6 6.33,96.58 l -180.78,234.81 c -11.46,-1.21 -23.24,-2.42 -35.01,-3.63 l 191.96,-249.59 c 13.28,-16.9 11.76,-41.65 -3.63,-57.04 l -184.7,-184.71 c -16.3,-16.3 -24.15,-38.94 -21.13,-61.87 l 29.27,-218.51 5.14,-39.24 c 9.95,3.93 19.61,7.85 28.97,11.17 l -3.32,24.14"
         style="fill:#040606;fill-opacity:1;fill-rule:nonzero;stroke:none"
         id="path162" />
      <path
         d="m 4667.07,835.531 c -3.04,-2.601 -6.1,-5.179 -9.22,-7.679 l -18.87,23.578 c 2.4,1.91 4.73,3.89 7.07,5.859 -64.96,23.652 -124.93,56.801 -172.09,111.774 -8.37,8.507 -15.81,17.386 -22.41,26.597 l -9.27,-8.621 -20.52,22.101 14,13 c -11.27,22.94 -17.52,47.85 -17.62,75.15 l -3.04,51.77 c -13.08,206.98 -67.6,410 -147.27,600.82 -160.36,371.29 -408.47,701.43 -708.17,972.15 -9.31,-4.04 -19.26,-6.93 -30.36,-7.32 l 9.48,26.32 c 7.04,-6.25 13.9,-12.69 20.88,-19 36.87,15.98 60.49,56.42 74.29,93.39 2.78,31.49 -14.44,59.85 -29.66,81.93 -30.69,40.99 -68.83,74.72 -108.96,105.76 -26.27,5.63 -51.85,12.4 -76.9,19.95 71.19,-49.78 173.02,-126.55 187.31,-198.24 -12.55,-33.47 -37.97,-78.87 -76.44,-80.38 l -39.43,-0.46 c 216.98,-184.52 405.39,-405.41 559.51,-645.09 146.55,-229.04 258.55,-482.37 310.42,-749.86 11.86,-66.86 21.69,-134.17 25.64,-201.95 2.77,-30.67 1.44,-75.57 10.66,-105.05 33.97,-102.171 134,-172.999 230.76,-210.249 66.05,-24.351 134.18,-36.922 199.66,-54.179 195.21,-56.332 375.9,-160.391 550.75,-262.461 26.12,-18.059 58.41,-30.84 71.67,-59.051 14.08,-27.199 -0.87,-53.57 -24.88,-67.34 -170.45,-38.609 -381.02,-29.41 -563.35,6.211 -190.64,31.551 -383.74,41.469 -576.75,25.57 3.92,-0.34 7.75,-1.511 10.36,-4.371 l -12.12,4.25 c 0.59,0.051 1.18,0.07 1.76,0.121 -6.76,0.59 -13.91,-2.14 -16.35,-9.121 -1.51,-2.949 -1.73,-6.199 -1.97,-9.519 10.47,-75.969 41.38,-147.442 64.88,-219.942 9.08,-28.457 30.98,-78.539 35.9,-106.867 12.31,-85.082 -110.32,-29.1797 -160.71,-8.6132 -109.75,39.8832 -223.3,66.0432 -336.02,94.3712 -140.37,36.699 -283.54,66.781 -423.81,105.223 l -6.12,-14.954 c -1.67,-4.07 -3.29,-8.089 -4.96,-12.14 141.67,-39.348 285.79,-71.156 427.81,-106.989 111.68,-28.128 224.5,-54.0191 332.52,-93.2808 34.64,-13.3008 72.03,-30.80076 112.89,-36.89842 20.29,-2.101561 44.04,-5.5 66.79,10.69922 11.06,8.1016 17.82,20.8008 20.45,32.6992 4.52,22.793 0.05,44.5117 -7.48,65.2618 l -9.75,27.129 c -4.61,13.312 -9.44,26.672 -14.21,40.012 -10.05,3.199 -19.8,6.339 -29.12,9.371 l 9.31,28.707 c 2.3,-0.75 4.81,-1.539 7.15,-2.301 -20.93,58.68 -41.15,117.902 -54.22,178.281 -3.82,-0.32 -7.67,-0.449 -11.48,-0.801 0,0 -1.45,0.512 -2,0.704 -3.76,-0.391 -7.57,0.628 -10.14,3.558 0,0 7.35,-2.582 10.14,-3.558 3.39,0.359 6.75,1.839 9.07,4.406 1.56,1.961 1.36,1.672 1.96,2.75 0.39,0.773 0.66,1.613 0.77,2.422 0.39,-1.02 0.05,-2.832 0.54,-4.969 0.32,-1.512 0.81,-3 1.14,-4.512 90.53,7.582 182.81,7.93 274.19,4.031 79.57,-1.511 157.99,-11.812 236.24,-23.511 -1.12,3.199 -2.11,6.461 -3.25,9.64 l 28.42,10.2 c 2.94,-8.239 5.59,-16.59 8.37,-24.899 100.48,-15.371 200.89,-31.422 303.25,-32.84 97.19,-1.621 193.97,3.649 290.62,26.891 40.23,15.949 61.41,69.519 41.34,106.949 -16.64,36.371 -53.07,52.309 -82.57,71.891 -59.84,34.277 -118.91,70.367 -179.41,103.097 -123.02,62.602 -245.8,126.442 -380.04,163.243 -51.38,12.39 -103.96,23.859 -154.44,39.609 -1.28,-1.059 -2.56,-2.102 -3.84,-3.148 -3.09,-2.493 -5.92,-4.903 -8.75,-7.282"
         style="fill:#040606;fill-opacity:1;fill-rule:nonzero;stroke:none"
         id="path164" />
      <path
         d="m 3813.9,8424.13 c -45.27,19.01 -93.25,37.72 -144.26,37.72 h -1.21 c -63.68,0 -118.61,-29.27 -153.62,-53.72 -44.97,-31.39 -82.09,-71.83 -116.5,-110.76 l -5.43,-6.34 c -34.1,-38.93 -69.11,-79.07 -114.08,-102.31 -53.42,-27.17 -116.8,-28.07 -166.3,-25.96 -14.19,0.6 -28.67,1.51 -42.86,2.72 -0.6,-9.96 -1.2,-20.23 -1.81,-30.19 14.49,-0.9 28.97,-2.11 43.46,-2.71 10.57,-0.6 21.43,-0.91 33.2,-0.91 46.48,0 100.2,5.74 148.19,30.49 49.8,25.65 86.92,67.9 123.14,109.25 l 5.43,6.04 c 32.9,37.42 68.51,76.66 111.07,105.93 31.39,22.03 80.28,48.29 136.42,48.29 46.77,0.3 90.84,-17.2 133.1,-35.31 83.29,-35.61 164.78,-76.66 242.35,-121.93 0.3,16.9 0.3,17.2 0.91,34.41 -74.55,42.55 -152.12,81.48 -231.2,115.29"
         style="fill:#040606;fill-opacity:1;fill-rule:nonzero;stroke:none"
         id="path166" />
      <path
         d="m 4858.97,197.441 c 4.93,-18.312 9.11,-37.289 2.3,-50.929 -8.1,-16.27 -30.74,-23.614 -68.29,-23.051 -58.18,1.09 -119.63,8.008 -187.83,21.129 -92.51,18.199 -183.5,45.961 -253.99,68.789 4.27,-11.949 8.4,-23.867 12.66,-35.777 67.73,-21.551 150.91,-45.973 235.55,-62.633 69.97,-13.469 133.1,-20.5667 193.02,-21.6877 2.1,-0.0313 4.66,-0.0899 7.58,-0.0899 23.28,0 70.03,3.2109 88.3,39.8206 12.5,25.019 4.6,54.578 -0.12,72.207 -13.47,50.441 -28.72,106.66 -47.24,161.902 -11.17,1.711 -22.36,3.391 -33.54,5.059 20.54,-58.918 37.07,-120.231 51.6,-174.739"
         style="fill:#040606;fill-opacity:1;fill-rule:nonzero;stroke:none"
         id="path168" />
      <path
         d="m 3054.83,8166.34 -2.35,-30.09 c 5.05,-0.4 10.16,-0.59 15.26,-0.95 0.57,10.05 1.23,20.08 1.9,30.12 -4.94,0.35 -9.9,0.54 -14.81,0.92"
         style="fill:#040606;fill-opacity:1;fill-rule:nonzero;stroke:none"
         id="path170" />
      <path
         d="m 4055.52,8268.08 15.39,25.97 c -8.51,5.04 -17.25,9.79 -25.85,14.72 -0.45,-17.1 -0.46,-17.35 -0.9,-34.21 3.76,-2.2 7.62,-4.26 11.36,-6.48"
         style="fill:#040606;fill-opacity:1;fill-rule:nonzero;stroke:none"
         id="path172" />
      <path
         d="m 3851.31,3639.81 c 35.18,18.01 67.16,38.73 94.08,62.6 -83.42,14.98 -179.97,-10.69 -250.89,35.58 -58.11,-19.29 -127.31,-35.5 -204.61,-47.28 -20.89,-3.18 -41.55,8.11 -50.51,27.44 l -110.27,238.87 c -32.36,70.24 -103.27,115.61 -180.64,115.61 h -188.28 c -21.72,0 -40.82,14.66 -46.39,35.65 l -70.68,264.98 c -23.9,89.66 -107.84,151.72 -201.24,147.5 l -441.07,-20.06 c -12.88,-0.79 -25.15,3.88 -34.64,12.56 -9.46,8.67 -15,20.5 -15.53,33.35 l -24.82,570.54 c -1.82,41.64 -36.84,73.27 -78.66,72.1 -41.65,-1.81 -73.92,-37.02 -72.12,-78.65 l 24.81,-570.53 c 2.3,-53.16 25.2,-102.22 64.43,-138.13 39.26,-35.93 90.4,-54.13 143.36,-51.99 l 441.08,20.05 c 23.19,1.01 42.82,-13.97 48.57,-35.6 l 70.68,-265 c 23.19,-86.94 102.24,-147.68 192.22,-147.68 h 188.28 c 18.69,0 35.78,-10.93 43.62,-27.91 l 110.29,-238.91 c 32.72,-70.91 104.4,-115.61 180.79,-115.61 9.76,0 19.6,0.74 29.45,2.23 22.44,3.42 45.93,7.49 69.89,12.15 22.82,19.37 46.62,32.85 77.78,43.31 61.9,20.87 126.08,35.15 191.02,42.83"
         style="fill:#040606;fill-opacity:1;fill-rule:nonzero;stroke:none"
         id="path174" />
      <path
         d="m 3995.75,3773.58 c 2.38,14.41 0.54,29.13 -5.32,42.54 -32.29,2.61 -64.64,5.29 -96.84,7.82 -11.87,1.03 -23.8,2.08 -35.56,3.86 -13.64,-15.29 -32.95,-30.04 -57.26,-44 62.52,-16.09 129.52,-14.36 194.98,-10.22"
         style="fill:#040606;fill-opacity:1;fill-rule:nonzero;stroke:none"
         id="path176" />
      <path
         d="m 3990.43,3816.12 c -4.74,10.83 -11.78,20.81 -21.65,28.71 -32.57,26.04 -80.05,20.72 -106.05,-11.79 -1.4,-1.76 -3.15,-3.49 -4.7,-5.24 11.76,-1.78 23.69,-2.83 35.56,-3.86 32.2,-2.53 64.55,-5.21 96.84,-7.82"
         style="fill:#040606;fill-opacity:1;fill-rule:nonzero;stroke:none"
         id="path178" />
      <path
         d="m 3980.57,3738.78 c 8.36,10.45 13.14,22.48 15.18,34.8 -65.46,-4.14 -132.46,-5.87 -194.98,10.22 -28.85,-16.56 -64.64,-31.98 -106.27,-45.81 70.92,-46.27 167.47,-20.6 250.89,-35.58 12.9,11.44 24.85,23.45 35.18,36.37"
         style="fill:#040606;fill-opacity:1;fill-rule:nonzero;stroke:none"
         id="path180" />
      <path
         d="m 3660.29,3596.98 c -31.16,-10.46 -54.96,-23.94 -77.78,-43.31 90.2,17.55 187.73,44.64 268.8,86.14 -64.94,-7.68 -129.12,-21.96 -191.02,-42.83"
         style="fill:#040606;fill-opacity:1;fill-rule:nonzero;stroke:none"
         id="path182" />
    </g>
  </g>
</svg>
